<svg width="277" height="133" viewBox="0 0 277 133" fill="none" xmlns="http://www.w3.org/2000/svg">
<mask id="mask0_5939_15050" style="mask-type:alpha" maskUnits="userSpaceOnUse" x="0" y="0" width="277" height="133">
<rect x="0.136719" y="0.347656" width="276" height="132" fill="#C4C4C4"/>
</mask>
<g mask="url(#mask0_5939_15050)">
<path d="M150.854 103.561L151.74 103.624C151.755 103.394 151.766 103.159 151.766 102.927H150.875C150.875 103.139 150.868 103.351 150.854 103.561Z" fill="#00A5E3"/>
<path d="M133.866 37.7987H132.979V39.1202H133.866V37.7987Z" fill="#00A5E3"/>
<path d="M133.866 35.1537H132.979V36.4752H133.866V35.1537Z" fill="#00A5E3"/>
<path d="M133.866 43.0914H132.979V44.4129H133.866V43.0914Z" fill="#00A5E3"/>
<path d="M133.866 93.3522H132.979V94.6736H133.866V93.3522Z" fill="#00A5E3"/>
<path d="M133.866 40.4464H132.979V41.7679H133.866V40.4464Z" fill="#00A5E3"/>
<path d="M133.866 51.0238H132.979V52.3453H133.866V51.0238Z" fill="#00A5E3"/>
<path d="M133.866 95.9998H132.979V97.3212H133.866V95.9998Z" fill="#00A5E3"/>
<path d="M133.866 98.6448H132.979V99.9662H133.866V98.6448Z" fill="#00A5E3"/>
<path d="M116.56 25.99L115.841 25.4677C115.571 25.8401 115.326 26.231 115.11 26.6376L115.894 27.0555C116.091 26.6856 116.314 26.3296 116.56 25.99Z" fill="#00A5E3"/>
<path d="M118.301 24.1806L117.753 23.4833C117.389 23.7672 117.046 24.0771 116.727 24.4104L117.366 25.0241C117.658 24.722 117.971 24.4402 118.301 24.1806Z" fill="#00A5E3"/>
<path d="M133.866 45.7365H132.979V47.0579H133.866V45.7365Z" fill="#00A5E3"/>
<path d="M115.377 28.206L114.544 27.9031C114.387 28.337 114.26 28.7811 114.163 29.2324L115.03 29.4178C115.118 29.0065 115.234 28.6016 115.377 28.206Z" fill="#00A5E3"/>
<path d="M133.866 58.9615H132.979V60.283H133.866V58.9615Z" fill="#00A5E3"/>
<path d="M133.866 64.2516H132.979V65.5731H133.866V64.2516Z" fill="#00A5E3"/>
<path d="M133.866 61.6066H132.979V62.928H133.866V61.6066Z" fill="#00A5E3"/>
<path d="M133.866 66.8993H132.979V68.2208H133.866V66.8993Z" fill="#00A5E3"/>
<path d="M133.866 56.3165H132.979V57.638H133.866V56.3165Z" fill="#00A5E3"/>
<path d="M133.866 69.5416H132.979V70.8631H133.866V69.5416Z" fill="#00A5E3"/>
<path d="M133.866 53.6688H132.979V54.9903H133.866V53.6688Z" fill="#00A5E3"/>
<path d="M133.866 48.3788H132.979V49.7002H133.866V48.3788Z" fill="#00A5E3"/>
<path d="M118.899 22.7043L119.346 23.4695C119.71 23.2608 120.087 23.0775 120.477 22.921L120.14 22.0984C119.713 22.2714 119.298 22.4738 118.899 22.7043Z" fill="#00A5E3"/>
<path d="M133.866 85.4171H132.979V86.7386H133.866V85.4171Z" fill="#00A5E3"/>
<path d="M133.866 88.0621H132.979V89.3836H133.866V88.0621Z" fill="#00A5E3"/>
<path d="M133.866 90.7072H132.979V92.0286H133.866V90.7072Z" fill="#00A5E3"/>
<path d="M133.866 82.7721H132.979V84.0936H133.866V82.7721Z" fill="#00A5E3"/>
<path d="M133.866 72.1893H132.979V73.5108H133.866V72.1893Z" fill="#00A5E3"/>
<path d="M133.866 74.8344H132.979V76.1558H133.866V74.8344Z" fill="#00A5E3"/>
<path d="M133.866 77.4794H132.979V78.8008H133.866V77.4794Z" fill="#00A5E3"/>
<path d="M133.866 80.1244H132.979V81.4459H133.866V80.1244Z" fill="#00A5E3"/>
<path d="M133.866 32.5087H132.979V33.8301H133.866V32.5087Z" fill="#00A5E3"/>
<path d="M132.957 27.1576L132.15 27.5284C132.325 27.9104 132.473 28.3039 132.594 28.7063L133.443 28.4451C133.312 28.0048 133.15 27.5745 132.957 27.1576Z" fill="#00A5E3"/>
<path d="M137.298 110.826C137.687 111.077 138.093 111.298 138.515 111.489L138.865 110.669C138.483 110.496 138.115 110.295 137.763 110.069L137.298 110.826Z" fill="#00A5E3"/>
<path d="M133.92 103.879L133.037 103.978C133.091 104.438 133.179 104.892 133.298 105.339L134.155 105.112C134.046 104.707 133.968 104.295 133.92 103.879Z" fill="#00A5E3"/>
<path d="M133.866 101.29H132.979V102.611H133.866V101.29Z" fill="#00A5E3"/>
<path d="M133.752 29.8L132.875 29.9359C132.938 30.3517 132.972 30.7715 132.977 31.192L133.865 31.179C133.859 30.7173 133.821 30.2566 133.752 29.8Z" fill="#00A5E3"/>
<path d="M139.805 111.976C140.251 112.101 140.705 112.195 141.165 112.255L141.277 111.375C140.862 111.318 140.451 111.231 140.048 111.114L139.805 111.976Z" fill="#00A5E3"/>
<path d="M135.883 108.426L135.207 109.001C135.506 109.354 135.831 109.685 136.178 109.991L136.763 109.322C136.449 109.045 136.155 108.746 135.883 108.426Z" fill="#00A5E3"/>
<path d="M142.532 111.433L142.551 112.321C143.013 112.311 143.473 112.268 143.929 112.193L143.783 111.318C143.369 111.387 142.951 111.425 142.532 111.433Z" fill="#00A5E3"/>
<path d="M150.303 106.006L151.13 106.325C151.298 105.893 151.434 105.45 151.535 104.998L150.668 104.805C150.576 105.214 150.454 105.616 150.303 106.006Z" fill="#00A5E3"/>
<path d="M149.063 108.182L149.761 108.73C150.048 108.365 150.31 107.98 150.544 107.578L149.761 107.14C149.554 107.503 149.321 107.852 149.063 108.182Z" fill="#00A5E3"/>
<path d="M145.002 111.022L145.276 111.865C145.716 111.723 146.144 111.548 146.558 111.343L146.164 110.559C145.788 110.741 145.4 110.895 145.002 111.022Z" fill="#00A5E3"/>
<path d="M147.241 109.902L147.763 110.628C148.142 110.363 148.501 110.07 148.837 109.753L148.215 109.103C147.91 109.392 147.584 109.659 147.241 109.902Z" fill="#00A5E3"/>
<path d="M133.748 106.654C133.932 107.078 134.147 107.488 134.39 107.881L135.145 107.414C134.923 107.058 134.728 106.686 134.563 106.301L133.748 106.654Z" fill="#00A5E3"/>
<path d="M128.911 23.7475C129.262 23.9803 129.596 24.2369 129.911 24.5153L130.507 23.8494C130.161 23.5443 129.794 23.2633 129.41 23.0084L128.911 23.7475Z" fill="#00A5E3"/>
<path d="M121.451 21.6594L121.671 22.5186C122.077 22.416 122.491 22.3418 122.908 22.2967L122.814 21.4139C122.355 21.4629 121.899 21.545 121.451 21.6594Z" fill="#00A5E3"/>
<path d="M126.648 22.6607C127.048 22.7889 127.439 22.9434 127.818 23.123L128.202 22.3238C127.785 22.1243 127.355 21.9541 126.915 21.8146L126.648 22.6607Z" fill="#00A5E3"/>
<path d="M131.472 24.8336L130.798 25.4134C131.072 25.7327 131.324 26.0703 131.552 26.4241L132.299 25.9435C132.048 25.5555 131.772 25.1847 131.472 24.8336Z" fill="#00A5E3"/>
<path d="M124.171 22.2435C124.591 22.2568 125.01 22.2978 125.424 22.3662L125.57 21.4913C125.116 21.4137 124.656 21.3674 124.194 21.3529L124.171 22.2435Z" fill="#00A5E3"/>
<path d="M114.855 30.6798L113.967 30.6198C113.951 30.8496 113.943 31.0846 113.943 31.317H114.839C114.839 31.1055 114.839 30.8914 114.855 30.6798Z" fill="#00A5E3"/>
<path d="M204.275 23.4872L203.813 22.7324C203.414 22.9739 203.035 23.2463 202.68 23.5472L203.249 24.2263C203.573 23.9558 203.916 23.7088 204.275 23.4872Z" fill="#00A5E3"/>
<path d="M206.598 22.5066L206.379 21.6473C205.927 21.7635 205.484 21.9128 205.055 22.0939L205.402 22.9218C205.79 22.7533 206.189 22.6145 206.598 22.5066Z" fill="#00A5E3"/>
<path d="M202.346 25.1082L201.68 24.5179C201.371 24.8665 201.088 25.2375 200.834 25.6279L201.578 26.1136C201.809 25.7598 202.065 25.4237 202.346 25.1082Z" fill="#00A5E3"/>
<path d="M217.944 29.0067L217.072 29.1686C217.151 29.5832 217.198 30.0031 217.213 30.4248L218.101 30.3935C218.083 29.928 218.031 29.4645 217.944 29.0067Z" fill="#00A5E3"/>
<path d="M212.732 23.2506C213.106 23.4492 213.465 23.6753 213.806 23.927L214.328 23.2167C213.955 22.9385 213.562 22.688 213.153 22.4672L212.732 23.2506Z" fill="#00A5E3"/>
<path d="M215.372 24.1332L214.751 24.7495C215.049 25.0483 215.324 25.3696 215.574 25.7106L216.289 25.1883C216.011 24.8139 215.704 24.4612 215.372 24.1332Z" fill="#00A5E3"/>
<path d="M218.107 58.3646H217.219V59.6965H218.107V58.3646Z" fill="#00A5E3"/>
<path d="M217.028 26.3777L216.245 26.7903C216.441 27.1639 216.61 27.5515 216.749 27.9499L217.587 27.6574C217.433 27.2176 217.246 26.7898 217.028 26.3777Z" fill="#00A5E3"/>
<path d="M210.36 22.4003C210.774 22.4813 211.18 22.5931 211.577 22.7346L211.877 21.8989C211.439 21.744 210.989 21.6209 210.533 21.5306L210.36 22.4003Z" fill="#00A5E3"/>
<path d="M207.753 21.4039L207.844 22.2867C208.263 22.2433 208.685 22.2311 209.106 22.2501L209.147 21.3543C208.682 21.3369 208.216 21.3535 207.753 21.4039Z" fill="#00A5E3"/>
<path d="M218.107 55.701H217.219V57.033H218.107V55.701Z" fill="#00A5E3"/>
<path d="M200.97 27.2208L200.163 26.8525C199.97 27.2753 199.808 27.7117 199.68 28.1583L200.534 28.4012C200.649 27.9974 200.795 27.6028 200.97 27.2208Z" fill="#00A5E3"/>
<path d="M200.209 30.757C200.209 30.3876 200.233 30.0186 200.28 29.6523L199.4 29.5374C199.347 29.9418 199.321 30.3492 199.321 30.757V30.9215H200.209V30.757Z" fill="#00A5E3"/>
<path d="M218.107 34.403H217.219V35.7349H218.107V34.403Z" fill="#00A5E3"/>
<path d="M200.209 32.2461H199.321V33.578H200.209V32.2461Z" fill="#00A5E3"/>
<path d="M218.107 31.7419H217.219V33.0739H218.107V31.7419Z" fill="#00A5E3"/>
<path d="M218.107 37.0638H217.219V38.3958H218.107V37.0638Z" fill="#00A5E3"/>
<path d="M218.107 42.3884H217.219V43.7203H218.107V42.3884Z" fill="#00A5E3"/>
<path d="M218.107 47.7129H217.219V49.0448H218.107V47.7129Z" fill="#00A5E3"/>
<path d="M218.107 50.3765H217.219V51.7084H218.107V50.3765Z" fill="#00A5E3"/>
<path d="M218.107 45.052H217.219V46.3839H218.107V45.052Z" fill="#00A5E3"/>
<path d="M218.107 53.0375H217.219V54.3694H218.107V53.0375Z" fill="#00A5E3"/>
<path d="M200.209 34.907H199.321V36.1867H200.209V34.907Z" fill="#00A5E3"/>
<path d="M218.107 39.7274H217.219V41.0593H218.107V39.7274Z" fill="#00A5E3"/>
<path d="M68.0312 105.569L68.8303 105.95C69.0327 105.528 69.203 105.092 69.3395 104.644L68.4908 104.383C68.3667 104.789 68.2131 105.185 68.0312 105.569Z" fill="#00A5E3"/>
<path d="M68.7686 103.156L69.6459 103.287C69.7147 102.826 69.7497 102.361 69.7504 101.895H68.8626C68.8627 102.317 68.8313 102.739 68.7686 103.156Z" fill="#00A5E3"/>
<path d="M64.6562 109.238L65.1054 110.003C65.5072 109.77 65.8913 109.509 66.2543 109.219L65.6955 108.53C65.3674 108.791 65.0199 109.028 64.6562 109.238Z" fill="#00A5E3"/>
<path d="M66.6172 107.655L67.27 108.255C67.5856 107.912 67.8753 107.547 68.1369 107.161L67.4032 106.662C67.1657 107.012 66.903 107.343 66.6172 107.655Z" fill="#00A5E3"/>
<path d="M59.8058 110.387L59.7432 111.272C59.9416 111.285 60.1479 111.29 60.349 111.29C60.6101 111.29 60.8712 111.29 61.1323 111.259L61.0566 110.374C60.6405 110.407 60.2225 110.412 59.8058 110.387Z" fill="#00A5E3"/>
<path d="M57.0293 110.684C57.4653 110.849 57.913 110.981 58.3688 111.078L58.5568 110.211C58.1447 110.122 57.7397 110.003 57.3453 109.854L57.0293 110.684Z" fill="#00A5E3"/>
<path d="M51.8517 102.051L50.9639 102.07C50.9733 102.535 51.017 103 51.0944 103.459L51.9692 103.31C51.8985 102.894 51.8592 102.473 51.8517 102.051Z" fill="#00A5E3"/>
<path d="M52.2721 104.545L51.4287 104.822C51.5706 105.264 51.7452 105.695 51.951 106.112L52.7343 105.712C52.5519 105.335 52.3974 104.945 52.2721 104.545Z" fill="#00A5E3"/>
<path d="M62.3193 110.174L62.523 111.038C62.977 110.931 63.4222 110.79 63.8547 110.615L63.5231 109.793C63.132 109.95 62.7296 110.077 62.3193 110.174Z" fill="#00A5E3"/>
<path d="M54.6016 109.32C54.9688 109.61 55.3572 109.872 55.7635 110.103L56.197 109.32C55.8328 109.113 55.4837 108.88 55.1525 108.623L54.6016 109.32Z" fill="#00A5E3"/>
<path d="M52.6777 107.309C52.9468 107.689 53.2436 108.049 53.5655 108.385L54.2079 107.771C53.9158 107.467 53.647 107.142 53.4036 106.797L52.6777 107.309Z" fill="#00A5E3"/>
<path d="M69.7833 86.4385H68.8955V87.7704H69.7833V86.4385Z" fill="#00A5E3"/>
<path d="M69.7833 89.0994H68.8955V90.4313H69.7833V89.0994Z" fill="#00A5E3"/>
<path d="M69.7833 91.7629H68.8955V93.0949H69.7833V91.7629Z" fill="#00A5E3"/>
<path d="M69.7833 83.7722H68.8955V85.1041H69.7833V83.7722Z" fill="#00A5E3"/>
<path d="M69.7833 94.424H68.8955V95.7559H69.7833V94.424Z" fill="#00A5E3"/>
<path d="M69.7833 99.7484H68.8955V101.08H69.7833V99.7484Z" fill="#00A5E3"/>
<path d="M69.7833 97.0848H68.8955V98.4167H69.7833V97.0848Z" fill="#00A5E3"/>
<path d="M184.492 111.432C180.562 111.424 176.796 109.859 174.019 107.079C171.242 104.299 169.68 100.531 169.676 96.6006V30.7546C169.676 28.2611 168.685 25.8698 166.922 24.1066C165.159 22.3434 162.768 21.3529 160.275 21.3529C157.782 21.3529 155.391 22.3434 153.628 24.1066C151.865 25.8698 150.875 28.2611 150.875 30.7546V49.6756H151.763V30.7546C151.763 29.6376 151.983 28.5315 152.41 27.4995C152.838 26.4676 153.464 25.5299 154.254 24.74C155.044 23.9502 155.981 23.3236 157.013 22.8962C158.045 22.4687 159.151 22.2487 160.267 22.2487C161.384 22.2487 162.49 22.4687 163.522 22.8962C164.554 23.3236 165.491 23.9502 166.281 24.74C167.071 25.5299 167.697 26.4676 168.125 27.4995C168.552 28.5315 168.772 29.6376 168.772 30.7546V96.6006C168.772 100.054 169.908 103.411 172.006 106.154C174.103 108.897 177.046 110.873 180.378 111.777C183.711 112.681 187.248 112.462 190.444 111.154C193.639 109.847 196.316 107.523 198.059 104.542L197.292 104.093C195.979 106.323 194.108 108.172 191.864 109.459C189.619 110.745 187.079 111.426 184.492 111.432Z" fill="#00A5E3"/>
<path d="M78.2538 39.7089C75.7607 39.7089 73.3697 40.6994 71.6068 42.4626C69.8439 44.2257 68.8535 46.6171 68.8535 49.1106V54.2084H69.7413V49.1027C69.7258 46.86 70.5968 44.702 72.1648 43.0985C73.7327 41.4951 75.8704 40.5761 78.1126 40.5416C80.3548 40.5072 82.5198 41.3601 84.1362 42.9146C85.7526 44.4692 86.6895 46.5994 86.7429 48.8416H87.6307C87.5608 46.3991 86.5428 44.0797 84.7925 42.375C83.0422 40.6702 80.697 39.714 78.2538 39.7089Z" fill="#00A5E3"/>
<path d="M113.943 98.2827C113.894 101.738 112.488 105.036 110.027 107.463C107.566 109.889 104.25 111.249 100.794 111.249C97.3388 111.249 94.0222 109.889 91.5616 107.463C89.101 105.036 87.6943 101.738 87.6456 98.2827V81.6312H86.7578V98.2827C86.8081 101.973 88.3091 105.495 90.936 108.086C93.5629 110.678 97.1044 112.131 100.794 112.131C104.484 112.131 108.026 110.678 110.653 108.086C113.28 105.495 114.781 101.973 114.831 98.2827V85.3554H113.943V98.2827Z" fill="#00A5E3"/>
<path d="M47.4706 101.219C47.3638 101.219 47.2572 101.209 47.152 101.191C47.0245 101.167 46.906 101.109 46.81 101.021C46.714 100.934 46.6443 100.822 46.6089 100.697C46.3739 99.89 45.8256 97.8686 45.9352 96.5681C46.0449 95.2675 47.0241 94.565 47.5228 94.3012C47.4236 93.361 47.2173 90.3629 48.3636 88.3964C49.5883 86.3071 50.4787 85.9624 50.5753 85.9285L50.6955 85.8893L50.8182 85.9285C50.9148 85.9624 51.8052 86.3019 53.0299 88.3964C54.1762 90.3629 53.9699 93.3584 53.8681 94.3012C54.3668 94.5624 55.3564 95.2518 55.4557 96.5681C55.5549 97.8843 55.0196 99.89 54.7846 100.697C54.7501 100.819 54.683 100.93 54.5906 101.017C54.4981 101.103 54.3838 101.164 54.2597 101.191C54.093 101.229 53.9203 101.234 53.7517 101.205C53.5831 101.176 53.422 101.113 53.2779 101.021C53.1972 100.96 53.1316 100.881 53.0863 100.79C53.041 100.7 53.0172 100.6 53.0168 100.499C53.0168 100.237 53.0168 99.7568 53.0168 99.2972C53.0168 99.036 53.0168 98.7931 53.0168 98.5947L52.8862 98.9707C52.8445 99.0935 52.8105 99.1927 52.8027 99.2188C52.5416 100.002 52.3457 100.525 52.3353 100.553C52.3193 100.605 52.293 100.652 52.2579 100.692C52.2227 100.733 52.1796 100.766 52.1312 100.789C52.0828 100.812 52.0302 100.825 51.9766 100.827C51.923 100.828 51.8696 100.819 51.8198 100.799C51.77 100.779 51.7248 100.749 51.6871 100.711C51.6494 100.673 51.62 100.627 51.6007 100.577C51.5815 100.527 51.5728 100.474 51.5751 100.42C51.5775 100.367 51.591 100.314 51.6146 100.266C51.6146 100.266 51.8183 99.7438 52.0611 98.9838L52.1525 98.7226C52.2126 98.5476 52.3248 98.2212 52.3457 98.1559C52.362 98.0862 52.3924 98.0205 52.435 97.963C52.4777 97.9055 52.5317 97.8574 52.5938 97.8216C52.8464 97.7052 53.1336 97.6885 53.398 97.7746C53.5105 97.8086 53.6091 97.8776 53.6796 97.9715C53.75 98.0655 53.7886 98.1795 53.7897 98.2969C53.7897 98.5006 53.7897 98.895 53.7897 99.3102C53.7897 99.7255 53.7897 100.167 53.7897 100.436C53.8762 100.449 53.9643 100.449 54.0508 100.436C54.2389 99.7829 54.7741 97.806 54.6828 96.6281C54.5861 95.385 53.3275 94.8993 53.3145 94.8967L53.022 94.787L53.0664 94.4762C53.0664 94.4396 53.5678 90.8591 52.3588 88.7881C51.5598 87.4223 50.9513 86.9104 50.6955 86.7407C50.4343 86.9104 49.8338 87.4223 49.0347 88.7881C47.8231 90.8617 48.3219 94.4396 48.3271 94.4762L48.3715 94.787L48.079 94.8967C48.0294 94.9149 46.8048 95.3955 46.7108 96.6281C46.6194 97.806 47.152 99.7829 47.3401 100.436C47.4266 100.449 47.5146 100.449 47.6012 100.436C47.6012 100.175 47.6012 99.7281 47.6012 99.305C47.6012 98.8819 47.6012 98.5006 47.6012 98.2969C47.6015 98.1793 47.6397 98.0649 47.7103 97.9707C47.7809 97.8766 47.88 97.8078 47.9929 97.7746C48.2564 97.6886 48.5428 97.7054 48.7945 97.8216C48.859 97.856 48.9155 97.9035 48.9605 97.9611C49.0055 98.0186 49.0379 98.085 49.0556 98.1559C49.0739 98.2212 49.1888 98.5477 49.2488 98.7252L49.3402 98.9864C49.5805 99.749 49.7841 100.263 49.7868 100.269C49.8104 100.317 49.8238 100.369 49.8262 100.423C49.8286 100.476 49.8199 100.53 49.8006 100.58C49.7813 100.63 49.7519 100.676 49.7142 100.714C49.6765 100.752 49.6314 100.782 49.5816 100.802C49.5317 100.822 49.4784 100.831 49.4248 100.829C49.3712 100.827 49.3185 100.815 49.2701 100.791C49.2217 100.768 49.1786 100.736 49.1435 100.695C49.1084 100.655 49.082 100.607 49.0661 100.556C49.0661 100.535 48.8493 100.013 48.5987 99.2214C48.5987 99.1953 48.5569 99.0961 48.5151 98.9759L48.3845 98.5973C48.3845 98.7957 48.3845 99.0439 48.3845 99.2972C48.3845 99.7568 48.3845 100.235 48.3845 100.501C48.3835 100.602 48.3595 100.702 48.3143 100.792C48.269 100.883 48.2038 100.962 48.1234 101.023C47.9338 101.16 47.704 101.229 47.4706 101.219Z" fill="#EA9C00"/>
<path d="M50.6035 93.5866C50.2456 93.5866 49.8958 93.4804 49.5982 93.2816C49.3006 93.0827 49.0687 92.8 48.9317 92.4693C48.7947 92.1386 48.7589 91.7747 48.8287 91.4237C48.8985 91.0726 49.0709 90.7501 49.324 90.497C49.577 90.2439 49.8995 90.0715 50.2505 90.0017C50.6015 89.9319 50.9653 89.9677 51.296 90.1047C51.6267 90.2417 51.9093 90.4736 52.1081 90.7713C52.3069 91.0689 52.4131 91.4188 52.4131 91.7767C52.4124 92.2565 52.2215 92.7165 51.8823 93.0557C51.5431 93.395 51.0832 93.5859 50.6035 93.5866ZM50.6035 90.7426C50.3969 90.7426 50.195 90.8038 50.0232 90.9186C49.8515 91.0334 49.7176 91.1966 49.6385 91.3874C49.5595 91.5783 49.5388 91.7884 49.5791 91.991C49.6194 92.1936 49.7189 92.3798 49.8649 92.5259C50.011 92.672 50.1971 92.7714 50.3997 92.8118C50.6024 92.8521 50.8124 92.8314 51.0032 92.7523C51.1941 92.6733 51.3572 92.5394 51.472 92.3676C51.5867 92.1958 51.648 91.9938 51.648 91.7872C51.648 91.5101 51.5379 91.2444 51.3421 91.0485C51.1462 90.8526 50.8805 90.7426 50.6035 90.7426Z" fill="#EA9C00"/>
<path d="M111.472 48.2551C111.175 48.2547 110.888 48.1456 110.666 47.9484C110.444 47.7511 110.301 47.4794 110.266 47.1844C110.123 47.2404 109.972 47.2687 109.819 47.2679C109.629 47.2696 109.441 47.2263 109.271 47.1415C109.101 47.0568 108.953 46.933 108.839 46.7802C108.726 46.6274 108.651 46.45 108.619 46.2624C108.587 46.0749 108.6 45.8825 108.657 45.701C108.46 45.6542 108.278 45.559 108.127 45.4238C107.976 45.2886 107.862 45.1179 107.794 44.9271C107.726 44.7363 107.706 44.5316 107.738 44.3315C107.769 44.1314 107.85 43.9423 107.973 43.7815C107.745 43.7006 107.547 43.5536 107.403 43.3592C107.259 43.1649 107.177 42.9321 107.166 42.6906C107.156 42.4491 107.217 42.2099 107.343 42.0037C107.469 41.7974 107.654 41.6335 107.874 41.5329C107.761 41.3639 107.692 41.1692 107.674 40.9668C107.656 40.7643 107.69 40.5606 107.771 40.3744C107.853 40.1881 107.979 40.0254 108.14 39.9011C108.301 39.7768 108.49 39.6949 108.691 39.663C108.67 39.5775 108.659 39.4899 108.657 39.4018C108.657 39.2174 108.699 39.0352 108.779 38.8693C108.86 38.7034 108.977 38.5582 109.123 38.4446C109.268 38.331 109.437 38.252 109.618 38.2138C109.798 38.1756 109.985 38.1791 110.164 38.224C110.221 37.8714 110.409 37.5534 110.691 37.3338C110.973 37.1142 111.327 37.0092 111.683 37.0399C112.039 37.0707 112.37 37.2348 112.609 37.4995C112.849 37.7641 112.98 38.1097 112.976 38.4669V47.0851C112.976 47.7537 112.344 48.2551 111.472 48.2551ZM110.814 46.7508V47.0407C110.814 47.2155 110.883 47.3832 111.007 47.507C111.13 47.6308 111.297 47.7008 111.472 47.7015C112.031 47.7015 112.423 47.4403 112.423 47.0851V38.4669C112.429 38.3495 112.411 38.2321 112.371 38.1218C112.331 38.0114 112.268 37.9105 112.187 37.8252C112.106 37.7398 112.009 37.6718 111.901 37.6254C111.793 37.5789 111.677 37.5549 111.56 37.5549C111.442 37.5549 111.326 37.5789 111.218 37.6254C111.11 37.6718 111.013 37.7398 110.932 37.8252C110.851 37.9105 110.789 38.0114 110.748 38.1218C110.708 38.2321 110.69 38.3495 110.697 38.4669C110.698 38.5168 110.703 38.5666 110.712 38.6157C110.722 38.6706 110.715 38.727 110.692 38.7778C110.669 38.8286 110.632 38.8713 110.584 38.9004C110.536 38.9291 110.481 38.9427 110.425 38.9394C110.369 38.9362 110.315 38.9162 110.271 38.8821C110.157 38.7924 110.016 38.7436 109.871 38.7437C109.747 38.741 109.624 38.7739 109.518 38.8385C109.412 38.9031 109.326 38.9968 109.271 39.1085C109.216 39.2202 109.194 39.3453 109.208 39.4689C109.222 39.5926 109.271 39.7098 109.349 39.8066C109.386 39.8527 109.408 39.9093 109.41 39.9684C109.413 40.0274 109.396 40.0857 109.363 40.1347C109.33 40.1837 109.282 40.2209 109.227 40.2408C109.171 40.2607 109.111 40.2623 109.054 40.2454C108.996 40.2281 108.937 40.2185 108.877 40.2166C108.73 40.222 108.59 40.276 108.477 40.3703C108.365 40.4646 108.287 40.5936 108.257 40.737C108.226 40.8804 108.244 41.0298 108.308 41.1617C108.372 41.2936 108.479 41.4003 108.61 41.465C108.67 41.4929 108.719 41.5414 108.746 41.6016C108.774 41.6619 108.78 41.7301 108.762 41.794C108.742 41.8574 108.702 41.912 108.646 41.9483C108.591 41.9846 108.524 42.0003 108.459 41.9925H108.43C108.412 41.9911 108.393 41.9911 108.375 41.9925C108.215 42.0062 108.065 42.078 107.954 42.1944C107.844 42.3109 107.779 42.4639 107.773 42.6246C107.768 42.7853 107.821 42.9426 107.923 43.0667C108.025 43.1908 108.169 43.2732 108.328 43.2983L108.939 43.3114C109.013 43.3114 109.083 43.3405 109.135 43.3925C109.187 43.4444 109.216 43.5148 109.216 43.5882C109.216 43.6616 109.187 43.732 109.135 43.784C109.083 43.8359 109.013 43.865 108.939 43.865C108.845 43.8504 108.749 43.8563 108.657 43.8824C108.565 43.9085 108.48 43.9541 108.408 44.0161C108.336 44.0782 108.277 44.1551 108.238 44.2418C108.198 44.3284 108.177 44.4226 108.177 44.5179C108.177 44.6133 108.198 44.7075 108.238 44.7941C108.277 44.8807 108.336 44.9577 108.408 45.0197C108.48 45.0818 108.565 45.1274 108.657 45.1535C108.749 45.1795 108.845 45.1855 108.939 45.1708C108.981 45.1744 109.023 45.1744 109.065 45.1708C109.121 45.1597 109.18 45.1666 109.233 45.1906C109.285 45.2146 109.329 45.2544 109.358 45.3046C109.387 45.3547 109.399 45.4125 109.393 45.47C109.387 45.5276 109.364 45.5818 109.326 45.6252C109.243 45.7202 109.189 45.8371 109.171 45.9618C109.153 46.0865 109.171 46.2138 109.223 46.3285C109.276 46.4431 109.36 46.5403 109.466 46.6082C109.572 46.6762 109.696 46.7121 109.822 46.7117C109.916 46.7114 110.01 46.6909 110.096 46.6518C110.182 46.6126 110.258 46.5556 110.321 46.4845L110.334 46.4688C110.429 46.3515 110.482 46.2049 110.482 46.0535C110.482 45.9801 110.512 45.9097 110.563 45.8578C110.615 45.8059 110.686 45.7767 110.759 45.7767C110.833 45.7767 110.903 45.8059 110.955 45.8578C111.007 45.9097 111.036 45.9801 111.036 46.0535C111.034 46.2998 110.957 46.5396 110.814 46.7404V46.7508Z" fill="#DF2E8B"/>
<path d="M115.816 47.2548C115.551 47.2567 115.293 47.1704 115.082 47.0093C115.024 46.965 114.985 46.8992 114.975 46.8265C114.965 46.7538 114.984 46.68 115.029 46.6215C115.073 46.563 115.139 46.5244 115.212 46.5144C115.284 46.5044 115.358 46.5236 115.417 46.5679C115.514 46.6414 115.63 46.6863 115.752 46.6977C115.874 46.709 115.996 46.6863 116.106 46.6322C116.216 46.5781 116.308 46.4946 116.373 46.391C116.438 46.2875 116.473 46.1679 116.474 46.0456C116.473 45.8818 116.411 45.7244 116.299 45.6043C116.259 45.5597 116.234 45.5033 116.229 45.4436C116.223 45.3839 116.237 45.3239 116.268 45.2726C116.299 45.2208 116.346 45.1806 116.402 45.1584C116.459 45.1362 116.52 45.1332 116.579 45.1499C116.664 45.1612 116.751 45.1555 116.835 45.1331C116.918 45.1108 116.997 45.0722 117.065 45.0196C117.134 44.9669 117.192 44.9013 117.235 44.8264C117.278 44.7516 117.306 44.6689 117.318 44.5831C117.329 44.4974 117.323 44.4103 117.301 44.3267C117.278 44.2432 117.24 44.1649 117.187 44.0962C117.135 44.0276 117.069 43.97 116.994 43.9267C116.919 43.8835 116.837 43.8554 116.751 43.8441C116.677 43.8441 116.607 43.8149 116.555 43.763C116.503 43.7111 116.474 43.6407 116.474 43.5672C116.474 43.4938 116.503 43.4234 116.555 43.3715C116.607 43.3196 116.677 43.2904 116.751 43.2904C117.052 43.2923 117.341 43.4058 117.563 43.6088C117.785 43.8118 117.923 44.0899 117.952 44.3893C117.98 44.6886 117.897 44.988 117.717 45.2293C117.538 45.4706 117.276 45.6368 116.981 45.6957C117.032 45.8762 117.041 46.0663 117.007 46.2509C116.973 46.4356 116.897 46.6098 116.784 46.7599C116.671 46.91 116.525 47.0318 116.357 47.1159C116.189 47.2 116.004 47.2439 115.816 47.2443V47.2548Z" fill="#DF2E8B"/>
<path d="M117.04 43.8451C116.967 43.8451 116.897 43.8159 116.845 43.764C116.793 43.7121 116.764 43.6417 116.764 43.5682C116.764 43.4948 116.793 43.4244 116.845 43.3725C116.897 43.3206 116.967 43.2914 117.04 43.2914C117.196 43.2672 117.338 43.1881 117.441 43.0684C117.543 42.9486 117.6 42.7962 117.6 42.6385C117.6 42.4809 117.543 42.3284 117.441 42.2087C117.338 42.0889 117.196 42.0098 117.04 41.9856C116.967 41.9856 116.897 41.9565 116.845 41.9045C116.793 41.8526 116.764 41.7822 116.764 41.7088C116.764 41.6354 116.793 41.565 116.845 41.5131C116.897 41.4611 116.967 41.432 117.04 41.432C117.204 41.4244 117.368 41.4501 117.522 41.5076C117.676 41.5652 117.816 41.6533 117.935 41.7667C118.054 41.8801 118.148 42.0164 118.213 42.1673C118.278 42.3183 118.311 42.4808 118.311 42.6451C118.311 42.8093 118.278 42.9718 118.213 43.1228C118.148 43.2737 118.054 43.41 117.935 43.5234C117.816 43.6368 117.676 43.725 117.522 43.7825C117.368 43.84 117.204 43.8657 117.04 43.8581V43.8451Z" fill="#DF2E8B"/>
<path d="M117.087 41.8584C117.025 41.8596 116.964 41.8397 116.914 41.8019C116.865 41.7641 116.829 41.7106 116.814 41.6501C116.798 41.5896 116.804 41.5256 116.829 41.4686C116.855 41.4116 116.899 41.3649 116.954 41.3361C117.09 41.2609 117.195 41.14 117.251 40.9949C117.306 40.8497 117.308 40.6896 117.257 40.5429C117.206 40.3963 117.104 40.2725 116.97 40.1935C116.837 40.1144 116.679 40.0853 116.526 40.1113C116.473 40.1196 116.419 40.1124 116.369 40.0907C116.32 40.0689 116.279 40.0334 116.249 39.9885C116.22 39.943 116.204 39.8899 116.204 39.8358C116.204 39.7816 116.22 39.7285 116.249 39.683C116.322 39.5759 116.361 39.4495 116.361 39.32C116.361 39.1689 116.309 39.0226 116.213 38.9056C116.118 38.7886 115.985 38.708 115.837 38.6774C115.689 38.6467 115.535 38.6679 115.401 38.7374C115.267 38.8068 115.161 38.9203 115.1 39.0588C115.07 39.126 115.015 39.1785 114.946 39.2047C114.877 39.2309 114.801 39.2287 114.733 39.1985C114.666 39.1684 114.614 39.1128 114.588 39.044C114.561 38.9752 114.564 38.8988 114.594 38.8316C114.703 38.5708 114.899 38.3562 115.149 38.2247C115.399 38.0932 115.687 38.053 115.964 38.1112C116.24 38.1694 116.488 38.3222 116.664 38.5433C116.84 38.7644 116.933 39.04 116.928 39.3226C116.929 39.4103 116.92 39.4979 116.902 39.5837C117.144 39.6356 117.364 39.7601 117.534 39.9407C117.703 40.1213 117.813 40.3493 117.849 40.5942C117.885 40.8391 117.845 41.0892 117.735 41.3109C117.625 41.5327 117.45 41.7155 117.234 41.8349C117.188 41.8567 117.137 41.8649 117.087 41.8584Z" fill="#DF2E8B"/>
<path d="M114.176 48.2529C113.351 48.2529 112.73 47.7306 112.73 47.0542V38.3054C112.722 38.1413 112.748 37.9774 112.805 37.8236C112.863 37.6698 112.951 37.5293 113.064 37.4105C113.178 37.2917 113.314 37.1972 113.465 37.1326C113.616 37.068 113.779 37.0347 113.943 37.0347C114.107 37.0347 114.269 37.068 114.42 37.1326C114.571 37.1972 114.708 37.2917 114.821 37.4105C114.934 37.5293 115.022 37.6698 115.08 37.8236C115.138 37.9774 115.163 38.1413 115.156 38.3054L115.135 38.9269C115.126 38.9962 115.092 39.0596 115.038 39.1047C114.985 39.1499 114.917 39.1735 114.847 39.1709C114.777 39.1682 114.711 39.1396 114.661 39.0906C114.612 39.0416 114.582 38.9757 114.579 38.906L114.602 38.2949C114.578 38.1391 114.499 37.9971 114.379 37.8946C114.259 37.792 114.107 37.7356 113.949 37.7356C113.792 37.7356 113.639 37.792 113.519 37.8946C113.4 37.9971 113.321 38.1391 113.296 38.2949V47.0437C113.296 47.412 113.68 47.6888 114.189 47.6888C114.367 47.6895 114.538 47.6208 114.665 47.4973C114.792 47.3738 114.866 47.2054 114.871 47.0281V46.6859C114.878 46.6168 114.91 46.5527 114.961 46.506C115.013 46.4593 115.08 46.4335 115.149 46.4335C115.219 46.4335 115.285 46.4593 115.337 46.506C115.388 46.5527 115.42 46.6168 115.427 46.6859V47.0281C115.427 47.191 115.394 47.3523 115.331 47.5025C115.268 47.6526 115.175 47.7887 115.059 47.9027C114.942 48.0167 114.804 48.1064 114.653 48.1665C114.501 48.2267 114.339 48.256 114.176 48.2529Z" fill="#DF2E8B"/>
<path d="M114.881 42.3142C114.717 42.3164 114.554 42.2998 114.395 42.2645C114.358 42.2577 114.323 42.2434 114.292 42.2225C114.261 42.2017 114.234 42.1747 114.214 42.1433C114.193 42.1118 114.179 42.0766 114.173 42.0396C114.167 42.0027 114.168 41.9648 114.176 41.9284C114.185 41.8919 114.201 41.8576 114.223 41.8275C114.246 41.7974 114.274 41.7721 114.306 41.7532C114.339 41.7344 114.375 41.7223 114.412 41.7177C114.449 41.7131 114.487 41.7161 114.523 41.7266C114.819 41.7848 115.124 41.766 115.411 41.6717C115.496 41.6343 115.566 41.5689 115.609 41.4863C115.652 41.4036 115.666 41.3088 115.648 41.2173C115.638 41.146 115.657 41.0736 115.699 41.0156C115.742 40.9575 115.806 40.9184 115.877 40.9065C115.948 40.8946 116.021 40.9109 116.08 40.9518C116.139 40.9928 116.18 41.0552 116.194 41.1259C116.234 41.344 116.197 41.5693 116.09 41.7635C115.983 41.9577 115.812 42.1089 115.606 42.1914C115.374 42.2759 115.128 42.3175 114.881 42.3142Z" fill="#DF2E8B"/>
<path d="M110.747 42.3507C110.417 42.3552 110.096 42.2475 109.835 42.0454C109.575 41.8433 109.391 41.5586 109.313 41.2381C109.305 41.2026 109.303 41.1658 109.309 41.1297C109.315 41.0937 109.327 41.059 109.346 41.0279C109.365 40.9967 109.39 40.9696 109.42 40.9481C109.449 40.9266 109.483 40.9111 109.518 40.9025C109.59 40.8852 109.666 40.8971 109.729 40.9356C109.792 40.974 109.837 41.0359 109.854 41.1076C109.875 41.1964 110.092 41.9407 111.021 41.7683C111.057 41.7615 111.094 41.7619 111.13 41.7693C111.165 41.7768 111.199 41.7913 111.229 41.8119C111.259 41.8326 111.285 41.8589 111.305 41.8896C111.325 41.9202 111.338 41.9544 111.345 41.9903C111.358 42.0626 111.342 42.1371 111.3 42.1977C111.259 42.2584 111.195 42.3002 111.123 42.3141C110.999 42.3372 110.873 42.3494 110.747 42.3507Z" fill="#DF2E8B"/>
<path d="M111.983 45.6204H111.967C111.213 45.576 111.022 45.3384 110.868 45.0563C110.841 44.9938 110.8 44.938 110.749 44.8929C110.698 44.8478 110.638 44.8144 110.573 44.7952C110.456 44.764 110.338 44.7421 110.218 44.7299C109.787 44.6698 109.299 44.5993 109.34 44.2075C109.363 43.8567 109.498 43.5222 109.723 43.2527C109.949 42.9832 110.255 42.7926 110.596 42.7085C110.666 42.7008 110.736 42.7194 110.792 42.7606C110.848 42.8018 110.887 42.8627 110.901 42.9312C110.915 42.9997 110.903 43.0709 110.866 43.1307C110.83 43.1905 110.773 43.2346 110.706 43.2543C110.506 43.3092 110.327 43.4199 110.188 43.5735C110.049 43.7271 109.957 43.9172 109.923 44.1214C110.032 44.1475 110.202 44.171 110.304 44.1867C110.467 44.2009 110.628 44.2334 110.784 44.2833C110.911 44.3269 111.028 44.3957 111.127 44.4854C111.227 44.5751 111.308 44.684 111.364 44.8056C111.445 44.9545 111.5 45.0668 112.009 45.0824C112.082 45.0845 112.152 45.1157 112.202 45.1691C112.253 45.2224 112.28 45.2937 112.278 45.3671C112.276 45.4405 112.245 45.5101 112.191 45.5605C112.138 45.611 112.067 45.6382 111.993 45.6361L111.983 45.6204Z" fill="#DF2E8B"/>
<path d="M113.834 41.8574C113.797 41.8576 113.761 41.8505 113.728 41.8366C113.694 41.8227 113.663 41.8023 113.638 41.7765C113.521 41.637 113.376 41.524 113.212 41.4452C113.048 41.3664 112.869 41.3235 112.687 41.3194C112.382 41.3612 112.103 41.5147 111.904 41.7504C111.882 41.7792 111.854 41.8033 111.822 41.8214C111.791 41.8395 111.756 41.8511 111.72 41.8558C111.684 41.8604 111.647 41.8578 111.612 41.8482C111.577 41.8387 111.544 41.8223 111.515 41.8C111.486 41.7777 111.462 41.7499 111.444 41.7183C111.426 41.6867 111.414 41.6518 111.409 41.6157C111.405 41.5796 111.407 41.5429 111.417 41.5077C111.427 41.4726 111.443 41.4397 111.465 41.4108C111.614 41.2117 111.806 41.0496 112.028 40.9371C112.249 40.8245 112.494 40.7647 112.742 40.7622C112.991 40.7596 113.236 40.8145 113.46 40.9225C113.684 41.0305 113.879 41.1887 114.032 41.3847C114.083 41.437 114.112 41.5073 114.112 41.5806C114.112 41.6539 114.083 41.7242 114.032 41.7765C114.006 41.8026 113.975 41.8232 113.941 41.8371C113.907 41.8511 113.87 41.858 113.834 41.8574Z" fill="#DF2E8B"/>
<path d="M112.805 44.6872H112.763C111.98 44.6584 111.473 43.9037 111.457 43.8724C111.436 43.8423 111.422 43.8085 111.414 43.7728C111.406 43.737 111.405 43.7001 111.412 43.6641C111.418 43.6281 111.431 43.5937 111.451 43.5629C111.471 43.5321 111.496 43.5055 111.526 43.4845C111.556 43.4636 111.59 43.4488 111.626 43.441C111.662 43.4331 111.699 43.4324 111.735 43.4388C111.771 43.4452 111.805 43.4587 111.836 43.4784C111.867 43.4981 111.893 43.5237 111.914 43.5537C111.914 43.5537 112.295 44.1048 112.784 44.1205C113.079 44.1205 113.39 43.935 113.695 43.5407C113.717 43.5101 113.744 43.4843 113.776 43.4646C113.807 43.4449 113.843 43.4319 113.88 43.4263C113.917 43.4206 113.954 43.4225 113.99 43.4318C114.027 43.4411 114.06 43.4576 114.09 43.4804C114.12 43.5031 114.144 43.5316 114.163 43.5641C114.181 43.5966 114.193 43.6325 114.197 43.6696C114.201 43.7068 114.197 43.7443 114.186 43.78C114.176 43.8158 114.158 43.8489 114.134 43.8776C113.726 44.4182 113.272 44.6872 112.805 44.6872Z" fill="#DF2E8B"/>
<path d="M113.534 45.7257C113.479 45.7271 113.425 45.712 113.378 45.6822C113.332 45.6524 113.295 45.6094 113.273 45.5586C113.244 45.4907 113.244 45.4142 113.271 45.3457C113.298 45.2772 113.352 45.2223 113.419 45.193C113.699 45.0729 113.942 44.9788 114.169 44.8927C114.584 44.7668 114.975 44.5697 115.323 44.3103C115.416 44.2353 115.476 44.1275 115.491 44.0092C115.506 43.891 115.475 43.7715 115.404 43.6757C115.326 43.5697 115.219 43.4886 115.095 43.4422C114.972 43.3959 114.838 43.3863 114.709 43.4145C114.638 43.4339 114.563 43.4243 114.499 43.3878C114.435 43.3513 114.388 43.2909 114.369 43.2199C114.349 43.1489 114.359 43.0731 114.395 43.0092C114.432 42.9453 114.492 42.8985 114.563 42.8791C114.797 42.823 115.043 42.8358 115.27 42.9159C115.497 42.9961 115.696 43.1402 115.843 43.3309C116.002 43.5396 116.075 43.8019 116.045 44.0629C116.015 44.3239 115.886 44.5633 115.683 44.7307C115.291 45.0313 114.849 45.261 114.378 45.4097C114.161 45.4907 113.918 45.5847 113.647 45.6996C113.612 45.7166 113.573 45.7255 113.534 45.7257Z" fill="#DF2E8B"/>
<path d="M113.011 49.947C112.585 49.947 110.468 49.9078 110.468 49.1191C110.468 48.3304 112.585 48.2913 113.011 48.2913C113.437 48.2913 115.554 48.333 115.554 49.1191C115.554 49.9052 113.431 49.947 113.011 49.947ZM111.108 49.1191C112.351 49.4813 113.671 49.4813 114.915 49.1191C113.671 48.757 112.351 48.757 111.108 49.1191Z" fill="#DF2E8B"/>
<path d="M113.014 51.0454C112.784 51.0454 110.773 51.0219 110.773 50.2175C110.773 49.4132 112.784 49.3896 113.014 49.3896C113.244 49.3896 115.254 49.4132 115.254 50.2175C115.254 51.0219 113.238 51.0454 113.014 51.0454ZM111.382 50.2175C111.578 50.3324 112.142 50.4787 113.014 50.4787C113.886 50.4787 114.45 50.322 114.646 50.2175C114.45 50.1026 113.886 49.9564 113.014 49.9564C112.142 49.9564 111.572 50.1026 111.377 50.2175H111.382Z" fill="#DF2E8B"/>
<path d="M113.011 52.1463C112.186 52.1463 111.298 51.8852 111.298 51.3185C111.298 50.7518 112.186 50.4906 113.011 50.4906C113.836 50.4906 114.724 50.7518 114.724 51.3185C114.724 51.8852 113.831 52.1463 113.011 52.1463ZM111.862 51.3185C111.948 51.4125 112.337 51.5796 113.011 51.5796C113.684 51.5796 114.071 51.402 114.157 51.3185C114.071 51.2245 113.682 51.0573 113.011 51.0573C112.34 51.0573 111.943 51.2245 111.857 51.3185H111.862Z" fill="#DF2E8B"/>
<path d="M192.131 44.8355C191.451 44.8323 190.796 44.5754 190.295 44.1151C189.795 43.6548 189.483 43.0242 189.423 42.3466C189.361 41.6269 189.588 40.9121 190.052 40.3589C190.517 39.8057 191.182 39.4593 191.901 39.3955C192.621 39.3328 193.336 39.5587 193.89 40.0235C194.443 40.4883 194.789 41.1539 194.852 41.8739C194.914 42.5939 194.689 43.3093 194.224 43.8628C193.759 44.4162 193.094 44.7623 192.374 44.825C192.282 44.8329 192.201 44.8355 192.131 44.8355ZM192.131 39.9414H191.938C191.366 39.9666 190.827 40.2146 190.437 40.6323C190.046 41.05 189.834 41.6041 189.847 42.1761C189.859 42.748 190.095 43.2922 190.504 43.6922C190.913 44.0922 191.462 44.3162 192.034 44.3162C192.606 44.3162 193.155 44.0922 193.564 43.6922C193.973 43.2922 194.209 42.748 194.222 42.1761C194.235 41.6041 194.023 41.05 193.632 40.6323C193.241 40.2146 192.702 39.9666 192.131 39.9414Z" fill="#EA9C00"/>
<path d="M191.786 48.3148L191.595 48.2991C191.098 48.2576 190.608 48.1549 190.135 47.9936L189.955 47.9335L189.913 46.8471C189.817 46.8027 189.723 46.7531 189.629 46.7035L188.736 47.3146L188.582 47.2049C188.172 46.9198 187.798 46.5857 187.469 46.2099L187.344 46.0662L187.851 45.1052C187.791 45.019 187.73 44.9302 187.676 44.844L186.589 44.9224L186.508 44.75C186.298 44.2985 186.143 43.8232 186.046 43.3345L186.007 43.1465L186.908 42.5615C186.908 42.457 186.908 42.3526 186.892 42.2455L185.913 41.7702L185.929 41.5795C185.971 41.0823 186.074 40.5921 186.234 40.1196L186.294 39.9394L187.381 39.8977C187.425 39.8036 187.475 39.707 187.524 39.6156L186.913 38.7146L187.023 38.5579C187.308 38.1483 187.642 37.7747 188.018 37.4454L188.159 37.32L189.122 37.8267C189.208 37.7666 189.297 37.7091 189.383 37.6517L189.305 36.5653L189.477 36.4843C189.929 36.2738 190.404 36.1178 190.893 36.0195L191.086 35.9803L191.666 36.8996L191.982 36.8839L192.457 35.9045L192.647 35.9202C193.149 35.9667 193.642 36.0746 194.117 36.2414L194.298 36.3015L194.339 37.3879C194.436 37.4349 194.53 37.4819 194.621 37.5316L195.525 36.9074L195.682 37.0171C196.089 37.3042 196.462 37.6382 196.791 38.0121L196.917 38.1557L196.41 39.1142C196.47 39.2004 196.53 39.2892 196.585 39.3753L197.671 39.297L197.752 39.4694C197.963 39.9207 198.118 40.396 198.214 40.8848L198.254 41.0729L197.332 41.6526C197.332 41.7545 197.348 41.8616 197.35 41.9686L198.329 42.444L198.314 42.6346C198.273 43.132 198.17 43.6224 198.008 44.0945L197.948 44.2747L196.862 44.3165C196.815 44.4131 196.768 44.5071 196.718 44.5985L197.329 45.5021L197.22 45.6588C196.933 46.0671 196.599 46.4397 196.225 46.7687L196.084 46.8941L195.12 46.3875C195.034 46.4475 194.945 46.505 194.859 46.5624L194.937 47.6489L194.765 47.7298C194.313 47.9403 193.838 48.0964 193.35 48.1947L193.162 48.2312L192.582 47.312C192.48 47.312 192.373 47.312 192.266 47.3276L191.786 48.3148ZM190.496 47.5313C190.808 47.6273 191.129 47.6946 191.454 47.7324L191.914 46.787H192.086C192.235 46.7899 192.384 46.7847 192.532 46.7714H192.653L192.859 46.7452L193.42 47.6358C193.739 47.5605 194.051 47.4592 194.352 47.3329L194.277 46.2882L194.428 46.202C194.602 46.1027 194.769 45.9928 194.93 45.873L195.071 45.7685L196 46.2569C196.238 46.0321 196.456 45.7874 196.653 45.5256L196.063 44.656L196.152 44.5045C196.252 44.3352 196.343 44.1609 196.426 43.9822L196.494 43.8203L197.538 43.7811C197.634 43.4674 197.701 43.1458 197.739 42.82L196.794 42.363V42.188C196.797 42.039 196.792 41.8899 196.778 41.7414C196.778 41.7023 196.778 41.6657 196.778 41.6318L196.755 41.415L197.643 40.8535C197.566 40.5262 197.46 40.2064 197.327 39.8977L196.282 39.9734L196.196 39.8219C196.099 39.6477 195.99 39.4801 195.87 39.3205L195.763 39.1795L196.251 38.2497C196.028 38.0112 195.784 37.7927 195.522 37.5968L194.65 38.1871L194.499 38.0983C194.33 38.0004 194.156 37.9131 193.976 37.8371L193.815 37.7666L193.773 36.722C193.46 36.6272 193.139 36.5599 192.814 36.5209L192.355 37.4663H192.18C192.032 37.4638 191.884 37.469 191.736 37.4819L191.606 37.4976L191.41 37.5211L190.825 36.6044C190.506 36.6794 190.194 36.7817 189.893 36.91L189.968 37.9546L189.817 38.0408C189.643 38.1383 189.475 38.2474 189.315 38.3673L189.174 38.4743L188.245 37.986C188.007 38.2098 187.789 38.4536 187.592 38.7146L188.182 39.5869L188.093 39.7384C187.995 39.9066 187.908 40.081 187.832 40.2607L187.762 40.4226L186.717 40.4618C186.623 40.7758 186.556 41.0973 186.516 41.4228L187.462 41.8799V42.0548C187.459 42.2039 187.464 42.353 187.477 42.5014C187.477 42.551 187.477 42.6007 187.495 42.6503L187.519 42.8279L186.626 43.3894C186.698 43.7136 186.798 44.0308 186.926 44.3374L187.971 44.2616L188.057 44.4131C188.155 44.5872 188.264 44.7547 188.383 44.9145L188.49 45.0555L187.999 45.9853C188.225 46.2225 188.469 46.4409 188.731 46.6382L189.603 46.0479L189.754 46.1367C189.922 46.2361 190.096 46.3234 190.276 46.3979L190.438 46.4684L190.496 47.5313ZM192.13 45.8756C191.385 45.8766 190.657 45.6566 190.037 45.2433C189.417 44.83 188.933 44.242 188.648 43.5538C188.362 42.8657 188.287 42.1082 188.432 41.3772C188.577 40.6463 188.935 39.9748 189.462 39.4477C189.988 38.9206 190.66 38.5616 191.39 38.4162C192.121 38.2708 192.878 38.3454 193.567 38.6307C194.255 38.916 194.843 39.399 195.257 40.0188C195.67 40.6386 195.891 41.3671 195.89 42.1123C195.89 43.1097 195.493 44.0661 194.789 44.7717C194.084 45.4772 193.128 45.8742 192.13 45.8756ZM192.13 38.9C191.495 38.8995 190.874 39.0875 190.345 39.4401C189.817 39.7928 189.405 40.2943 189.161 40.8812C188.918 41.4681 188.854 42.1141 188.977 42.7374C189.101 43.3607 189.407 43.9333 189.856 44.3828C190.305 44.8323 190.877 45.1385 191.5 45.2626C192.123 45.3868 192.769 45.3233 193.356 45.0803C193.943 44.8372 194.445 44.4255 194.798 43.8972C195.151 43.3689 195.34 42.7477 195.34 42.1123C195.338 41.2612 195 40.4454 194.398 39.8433C193.797 39.2413 192.981 38.9021 192.13 38.9Z" fill="#EA9C00"/>
<path d="M192.131 44.8355C191.451 44.8323 190.796 44.5754 190.295 44.1151C189.795 43.6548 189.483 43.0242 189.423 42.3466C189.361 41.6269 189.588 40.9121 190.052 40.3589C190.517 39.8057 191.182 39.4593 191.901 39.3955C192.621 39.3328 193.336 39.5587 193.89 40.0235C194.443 40.4883 194.789 41.1539 194.852 41.8739C194.914 42.5939 194.689 43.3093 194.224 43.8628C193.759 44.4162 193.094 44.7623 192.374 44.825C192.282 44.8329 192.201 44.8355 192.131 44.8355ZM192.131 39.9414H191.938C191.51 39.9787 191.103 40.142 190.768 40.4106C190.433 40.6793 190.186 41.0412 190.057 41.4506C189.928 41.86 189.923 42.2986 190.043 42.7107C190.163 43.1229 190.403 43.4901 190.732 43.766C191.06 44.0419 191.464 44.2141 191.89 44.2608C192.317 44.3074 192.748 44.2264 193.129 44.0281C193.509 43.8297 193.823 43.5229 194.029 43.1464C194.235 42.77 194.325 42.3408 194.288 41.9131C194.239 41.3744 193.991 40.8732 193.592 40.5083C193.193 40.1434 192.672 39.9411 192.131 39.9414Z" fill="#EA9C00"/>
<path d="M192.133 45.8745C191.388 45.8755 190.659 45.6554 190.039 45.2422C189.419 44.8289 188.936 44.2409 188.65 43.5527C188.364 42.8645 188.289 42.107 188.434 41.3761C188.579 40.6452 188.938 39.9737 189.464 39.4466C189.991 38.9195 190.662 38.5605 191.393 38.4151C192.123 38.2696 192.881 38.3443 193.569 38.6296C194.257 38.9148 194.846 39.3979 195.259 40.0177C195.673 40.6374 195.894 41.366 195.893 42.1112C195.892 43.1086 195.496 44.065 194.791 44.7705C194.086 45.4761 193.13 45.8731 192.133 45.8745ZM192.133 38.8989C191.498 38.8984 190.876 39.0864 190.348 39.439C189.819 39.7917 189.407 40.2932 189.164 40.8801C188.92 41.467 188.856 42.113 188.98 42.7362C189.104 43.3595 189.409 43.9321 189.858 44.3817C190.307 44.8312 190.88 45.1374 191.503 45.2615C192.126 45.3857 192.772 45.3222 193.359 45.0792C193.946 44.8361 194.448 44.4244 194.801 43.8961C195.154 43.3678 195.342 42.7466 195.342 42.1112C195.341 41.2601 195.002 40.4443 194.401 39.8422C193.799 39.2402 192.984 38.901 192.133 38.8989Z" fill="#EA9C00"/>
<path d="M202.02 49.3877C201.844 49.3892 201.668 49.3663 201.498 49.3198C201.244 49.2524 201.007 49.1349 200.8 48.9744C200.593 48.8138 200.42 48.6134 200.291 48.3849C200.046 47.9405 199.979 47.419 200.105 46.9272C200.232 46.4354 200.541 46.0104 200.97 45.7393C201.194 45.6007 201.444 45.5085 201.704 45.468C201.965 45.4275 202.231 45.4396 202.486 45.5037C202.742 45.5677 202.982 45.6823 203.193 45.8408C203.403 45.9992 203.58 46.1983 203.712 46.4262C203.89 46.7251 203.985 47.0657 203.988 47.4133C203.991 47.7609 203.902 48.1032 203.731 48.4054C203.559 48.7075 203.31 48.9588 203.009 49.1336C202.709 49.3085 202.368 49.4006 202.02 49.4008V49.3877ZM202.02 45.9927C201.758 45.9934 201.501 46.0676 201.278 46.2068C200.97 46.4017 200.748 46.7071 200.657 47.0605C200.566 47.4139 200.614 47.7886 200.79 48.108C200.883 48.272 201.007 48.4159 201.156 48.5312C201.305 48.6465 201.475 48.731 201.657 48.7796C201.839 48.8283 202.029 48.8401 202.215 48.8145C202.402 48.7889 202.581 48.7263 202.743 48.6304C203.066 48.4376 203.299 48.1247 203.391 47.7604C203.483 47.3961 203.427 47.0102 203.234 46.6873C203.139 46.5243 203.011 46.3823 202.86 46.2697C202.708 46.157 202.535 46.0761 202.352 46.0318C202.24 46.0077 202.126 45.9963 202.012 45.9979L202.02 45.9927Z" fill="#EA9C00"/>
<path d="M202.015 52.2209C201.859 52.2218 201.703 52.2148 201.548 52.2L201.355 52.1817L201.151 51.3982C201.054 51.3773 200.96 51.3538 200.866 51.3251L200.318 51.9023L200.141 51.8291C199.823 51.6937 199.521 51.5238 199.24 51.3225L199.083 51.2102L199.294 50.4267C199.221 50.3614 199.151 50.2909 199.083 50.2204L198.318 50.4476L198.203 50.2935C198.1 50.155 198.004 50.0112 197.916 49.8626C197.827 49.7139 197.747 49.5604 197.676 49.403L197.597 49.228L198.164 48.6691C198.133 48.5725 198.106 48.4785 198.083 48.3818L197.3 48.199L197.276 48.0058C197.237 47.6586 197.237 47.3083 197.276 46.9611L197.294 46.7705L198.078 46.5668C198.101 46.4702 198.125 46.3761 198.151 46.2821L197.571 45.7337L197.649 45.5561C197.782 45.2511 197.946 44.9605 198.138 44.6891L198.25 44.5324L199.018 44.7439C199.083 44.6708 199.153 44.6003 199.224 44.5324L198.997 43.7672L199.153 43.6523C199.291 43.5494 199.434 43.4535 199.582 43.365C199.72 43.284 199.877 43.2031 200.041 43.1273L200.219 43.049L200.778 43.6131C200.872 43.5844 200.966 43.5556 201.062 43.5321L201.248 42.7486L201.438 42.7251C201.785 42.6865 202.136 42.6865 202.483 42.7251L202.673 42.7434L202.877 43.5269C202.974 43.5478 203.068 43.5713 203.162 43.6L203.71 43.0203L203.888 43.096C204.205 43.2323 204.507 43.4022 204.788 43.6026L204.945 43.7149L204.734 44.4827C204.807 44.5506 204.877 44.6185 204.945 44.6917L205.708 44.4619L205.825 44.6185C205.929 44.7566 206.025 44.9005 206.112 45.0495C206.2 45.1985 206.28 45.3519 206.353 45.5091L206.431 45.6841L205.864 46.243C205.896 46.337 205.922 46.4336 205.945 46.5276L206.729 46.713L206.749 46.9063C206.791 47.253 206.796 47.6033 206.763 47.9509L206.742 48.1442L205.971 48.3453C205.95 48.4419 205.924 48.5359 205.898 48.6299L206.475 49.181L206.4 49.356C206.265 49.6745 206.095 49.9767 205.893 50.257L205.781 50.4137L205.013 50.2047C204.948 50.2779 204.877 50.3484 204.807 50.4163L205.034 51.1789L204.88 51.2938C204.742 51.3981 204.598 51.4949 204.449 51.5837C204.3 51.6706 204.147 51.7499 203.989 51.8213L203.814 51.8997L203.253 51.3329C203.159 51.3643 203.062 51.3904 202.968 51.4139L202.783 52.1974L202.592 52.2209C202.4 52.2318 202.208 52.2318 202.015 52.2209ZM201.791 51.662C201.965 51.6721 202.139 51.6721 202.313 51.662L202.488 50.9229L202.663 50.889C202.849 50.8528 203.031 50.8021 203.209 50.7375L203.376 50.6748L203.898 51.2154L204.13 51.0874C204.206 51.0431 204.279 50.996 204.352 50.9438L204.138 50.2178L204.271 50.1003C204.414 49.9759 204.547 49.8406 204.668 49.6955L204.783 49.5571L205.514 49.7582C205.611 49.61 205.699 49.4556 205.776 49.2959L205.222 48.7736L205.282 48.6038C205.344 48.4252 205.391 48.2418 205.423 48.0554L205.454 47.8804L206.188 47.6898C206.197 47.5158 206.197 47.3414 206.188 47.1675L205.452 46.9925L205.418 46.8175C205.38 46.6308 205.328 46.4473 205.261 46.2691L205.201 46.1019L205.739 45.5796C205.7 45.5013 205.655 45.4229 205.611 45.3472C205.567 45.2714 205.52 45.1957 205.47 45.1226L204.741 45.3393L204.624 45.2035C204.5 45.0602 204.365 44.9274 204.219 44.8066L204.083 44.6917L204.285 43.963C204.135 43.8659 203.98 43.7787 203.82 43.7019L203.297 44.2529L203.13 44.1955C202.952 44.1333 202.768 44.0852 202.582 44.0518L202.407 44.0231L202.214 43.2892C202.04 43.2778 201.865 43.2778 201.692 43.2892L201.532 44.0048L201.357 44.0388C201.172 44.0759 200.989 44.1274 200.812 44.1929L200.644 44.2555L200.122 43.7149C200.039 43.7567 199.963 43.7985 199.89 43.8429C199.817 43.8873 199.738 43.9343 199.665 43.9865L199.879 44.7126L199.746 44.8301C199.604 44.9544 199.471 45.0898 199.349 45.2349L199.234 45.3733L198.503 45.1722C198.407 45.3206 198.319 45.475 198.242 45.6345L198.793 46.1568L198.736 46.3265C198.674 46.5051 198.627 46.6886 198.595 46.875L198.566 47.0499L197.832 47.2406C197.821 47.4145 197.821 47.589 197.832 47.7629L198.569 47.9379L198.603 48.1129C198.64 48.2994 198.691 48.4827 198.757 48.6613L198.817 48.8284L198.279 49.3507C198.318 49.4291 198.36 49.5074 198.404 49.5806C198.448 49.6537 198.498 49.7346 198.548 49.8078L199.276 49.591L199.394 49.7268C199.518 49.8695 199.653 50.0022 199.798 50.1238L199.934 50.2361L199.736 50.9673C199.883 51.0639 200.037 51.1511 200.195 51.2285L200.718 50.6774L200.885 50.7349C201.063 50.7975 201.247 50.8446 201.433 50.8759L201.611 50.9046L201.791 51.662ZM202.013 50.6356H201.945C201.088 50.6267 200.269 50.2787 199.668 49.6677C199.066 49.0568 198.731 48.2326 198.736 47.3753C198.74 46.518 199.084 45.6973 199.692 45.0927C200.299 44.488 201.122 44.1486 201.979 44.1486C202.836 44.1486 203.658 44.488 204.266 45.0927C204.874 45.6973 205.217 46.518 205.222 47.3753C205.226 48.2326 204.891 49.0568 204.29 49.6677C203.689 50.2787 202.87 50.6267 202.013 50.6356ZM202.013 44.8431C201.32 44.8359 200.653 45.104 200.158 45.5887C199.663 46.0733 199.381 46.7347 199.374 47.4273C199.367 48.1199 199.635 48.7871 200.12 49.282C200.604 49.7769 201.265 50.059 201.958 50.0663C202.302 50.0746 202.644 50.0149 202.965 49.8905C203.286 49.766 203.579 49.5794 203.827 49.3413C204.076 49.1033 204.275 48.8184 204.413 48.5031C204.551 48.1879 204.625 47.8485 204.632 47.5043C204.64 47.1603 204.58 46.818 204.456 46.4971C204.332 46.1762 204.145 45.8831 203.907 45.6346C203.669 45.386 203.384 45.187 203.069 45.049C202.754 44.9109 202.414 44.8365 202.07 44.8301L202.013 44.8431Z" fill="#EA9C00"/>
<path d="M149.984 98.1918C148.954 98.1905 147.939 97.9417 147.025 97.4663C146.11 96.9909 145.324 96.3029 144.731 95.4601C144.721 95.4429 144.716 95.4236 144.716 95.4039C144.716 95.3843 144.721 95.3649 144.731 95.3478C144.739 95.3303 144.751 95.3154 144.767 95.3043C144.782 95.2933 144.8 95.2867 144.819 95.2851C145.163 95.2508 145.505 95.1976 145.843 95.1258C146.083 95.0762 146.347 95.0161 146.653 94.9378C148.895 94.3141 151.079 93.498 153.181 92.4985C153.515 92.3444 153.841 92.1904 154.165 92.0337C154.191 92.0209 154.222 92.0189 154.25 92.0282C154.277 92.0374 154.3 92.0572 154.314 92.0833L154.755 92.9582C154.768 92.9798 154.786 92.9978 154.808 93.0103C154.829 93.0228 154.854 93.0294 154.879 93.0294C154.904 93.0294 154.929 93.0228 154.951 93.0103C154.972 92.9978 154.991 92.9798 155.003 92.9582L156.048 90.8114C156.057 90.7923 156.061 90.7713 156.061 90.7501C156.061 90.7288 156.057 90.7079 156.048 90.6887C156.037 90.6695 156.023 90.6527 156.005 90.6396C155.987 90.6266 155.967 90.6175 155.946 90.613L153.596 90.1847C153.568 90.18 153.54 90.1837 153.514 90.1953C153.488 90.207 153.467 90.226 153.452 90.2499C153.44 90.27 153.433 90.2931 153.433 90.3165C153.433 90.34 153.44 90.3631 153.452 90.3831L153.909 91.2972C153.92 91.3241 153.92 91.3539 153.909 91.3808C153.899 91.4091 153.878 91.4324 153.852 91.4461C153.549 91.5949 153.225 91.749 152.893 91.9005C150.913 92.8386 148.86 93.6159 146.754 94.2248C146.232 94.3632 145.793 94.4651 145.431 94.5303C145.061 94.6025 144.686 94.6427 144.31 94.6505C144.289 94.651 144.268 94.6454 144.25 94.6342C144.232 94.6231 144.218 94.607 144.208 94.5878C144.141 94.4442 144.073 94.2927 144.005 94.1255C143.997 94.1066 143.994 94.0858 143.997 94.0655C144.001 94.0451 144.01 94.0261 144.023 94.0106C144.273 93.7262 144.547 93.464 144.843 93.2272C144.778 92.9973 144.72 92.7597 144.671 92.5168C144.398 92.724 144.137 92.9454 143.887 93.1802C143.873 93.1943 143.856 93.2042 143.836 93.2088C143.817 93.2134 143.797 93.2125 143.778 93.2063C143.758 93.201 143.741 93.1904 143.728 93.1756C143.714 93.1608 143.705 93.1424 143.702 93.1227C143.605 92.6783 143.556 92.2248 143.556 91.7699C143.555 90.4994 143.93 89.2572 144.635 88.2004C145.34 87.1436 146.343 86.3196 147.516 85.8329C148.69 85.3461 149.981 85.2183 151.227 85.4657C152.473 85.7131 153.618 86.3246 154.516 87.2228C155.414 88.121 156.026 89.2655 156.274 90.5115C156.522 91.7575 156.395 93.0491 155.909 94.2228C155.422 95.3965 154.599 96.3996 153.543 97.1052C152.486 97.8107 151.244 98.1871 149.974 98.1866L149.984 98.1918ZM145.023 95.4862C145.803 96.5269 146.89 97.2959 148.131 97.6843C149.372 98.0727 150.704 98.0609 151.938 97.6504C153.171 97.2399 154.245 96.4517 155.006 95.3972C155.767 94.3428 156.177 93.0756 156.178 91.7751C156.179 91.5553 156.167 91.3356 156.144 91.117L155.194 93.0548C155.163 93.1145 155.116 93.1647 155.059 93.1997C155.002 93.2347 154.936 93.2532 154.869 93.2532C154.802 93.2532 154.736 93.2347 154.678 93.1997C154.621 93.1647 154.574 93.1145 154.544 93.0548L154.152 92.2713C153.862 92.4123 153.564 92.5534 153.264 92.6918C151.15 93.6997 148.953 94.5228 146.697 95.1519C146.389 95.2329 146.12 95.2955 145.877 95.3425C145.574 95.4078 145.287 95.4548 145.026 95.4862H145.023ZM144.24 94.102C144.287 94.2152 144.334 94.3223 144.381 94.4233C144.72 94.4117 145.058 94.3733 145.391 94.3084C145.752 94.2457 146.19 94.1438 146.697 94.008C148.789 93.4007 150.83 92.6278 152.799 91.6968C153.094 91.561 153.382 91.4356 153.653 91.292L153.243 90.4798C153.216 90.4249 153.203 90.364 153.206 90.3028C153.209 90.2416 153.227 90.1821 153.259 90.1298C153.296 90.0669 153.352 90.017 153.419 89.9871C153.486 89.9571 153.56 89.9486 153.632 89.9627L155.982 90.3936H156.022C155.684 88.9075 154.811 87.5979 153.568 86.7151C152.326 85.8324 150.802 85.4383 149.288 85.6083C147.774 85.7783 146.375 86.5003 145.36 87.6365C144.344 88.7727 143.783 90.2433 143.783 91.7673C143.783 92.1403 143.816 92.5126 143.882 92.8798C144.109 92.6735 144.376 92.4541 144.678 92.2269C144.694 92.2155 144.711 92.2081 144.73 92.2053C144.749 92.2026 144.768 92.2046 144.786 92.2113C144.803 92.2186 144.819 92.23 144.831 92.2446C144.843 92.2591 144.852 92.2763 144.856 92.2948C144.911 92.6114 144.984 92.9244 145.075 93.2324C145.082 93.2538 145.081 93.2766 145.075 93.2979C145.068 93.3192 145.056 93.3382 145.039 93.3525C144.753 93.5801 144.487 93.8307 144.242 94.102H144.24Z" fill="#DF2E8B"/>
<path d="M149.984 98.3053C148.936 98.3048 147.903 98.0518 146.973 97.5677C146.043 97.0835 145.243 96.3825 144.641 95.5239C144.619 95.4925 144.605 95.4555 144.601 95.4168C144.597 95.3781 144.603 95.3391 144.62 95.3038C144.636 95.2684 144.661 95.238 144.693 95.2157C144.725 95.1933 144.762 95.1799 144.801 95.1766C145.141 95.142 145.479 95.0888 145.814 95.0173C146.049 94.9703 146.313 94.9076 146.615 94.8319C148.852 94.206 151.031 93.3891 153.128 92.39C153.425 92.2516 153.736 92.1028 154.107 91.9252C154.133 91.9122 154.161 91.9045 154.19 91.9025C154.219 91.9004 154.248 91.9041 154.275 91.9134C154.303 91.9226 154.328 91.9372 154.35 91.9562C154.371 91.9753 154.389 91.9985 154.402 92.0244L154.843 92.9124C154.843 92.9124 154.867 92.9124 154.869 92.9124C154.874 92.9142 154.878 92.9152 154.883 92.9152C154.887 92.9152 154.891 92.9142 154.896 92.9124L155.94 90.7682C155.943 90.7597 155.943 90.7506 155.94 90.7421C155.934 90.7342 155.926 90.7286 155.917 90.7265L153.566 90.2955C153.561 90.2955 153.555 90.297 153.55 90.2997C153.545 90.3024 153.541 90.3064 153.538 90.3112C153.535 90.3151 153.534 90.3196 153.534 90.3243C153.534 90.3289 153.535 90.3335 153.538 90.3373L153.995 91.2488C154.021 91.3024 154.026 91.3641 154.008 91.4211C153.999 91.4489 153.984 91.4746 153.965 91.4966C153.945 91.5186 153.922 91.5365 153.895 91.5491C153.59 91.698 153.266 91.8521 152.935 92.0061C150.947 92.9449 148.888 93.7239 146.777 94.3357C146.255 94.4767 145.811 94.5785 145.443 94.6438C145.068 94.7174 144.687 94.7576 144.305 94.764C144.263 94.7645 144.221 94.753 144.186 94.7308C144.15 94.7086 144.121 94.6766 144.103 94.6386C144.033 94.4924 143.965 94.3409 143.895 94.1711C143.879 94.1329 143.875 94.0913 143.882 94.0507C143.889 94.0102 143.907 93.9724 143.934 93.9413C144.173 93.6724 144.436 93.4243 144.717 93.1996C144.673 93.0455 144.634 92.8862 144.6 92.7269C144.38 92.8978 144.169 93.08 143.968 93.2728C143.939 93.3002 143.904 93.3194 143.865 93.3285C143.827 93.3376 143.786 93.3362 143.748 93.3245C143.711 93.3128 143.677 93.2911 143.65 93.2618C143.623 93.2325 143.605 93.1966 143.597 93.1578C143.312 91.8378 143.444 90.4619 143.974 89.2198C144.503 87.9777 145.405 86.9305 146.555 86.2223C147.705 85.5142 149.045 85.18 150.393 85.2658C151.74 85.3516 153.028 85.8531 154.079 86.7014C155.129 87.5496 155.891 88.7028 156.259 90.0021C156.627 91.3013 156.583 92.6828 156.133 93.9561C155.684 95.2294 154.85 96.3319 153.748 97.1117C152.646 97.8916 151.329 98.3104 149.979 98.3105L149.984 98.3053ZM144.902 95.5083C145.689 96.58 146.794 97.3759 148.059 97.7821C149.325 98.1884 150.687 98.1843 151.95 97.7704C153.213 97.3566 154.313 96.5541 155.093 95.4776C155.873 94.4011 156.293 93.1057 156.293 91.7763C156.293 91.5196 156.277 91.2632 156.246 91.0085V91.1051C156.27 91.3281 156.282 91.5521 156.282 91.7763C156.282 93.1007 155.865 94.3914 155.09 95.4655C154.315 96.5396 153.222 97.3424 151.966 97.7603C150.709 98.1782 149.353 98.1898 148.089 97.7935C146.826 97.3973 145.719 96.6133 144.926 95.5527L144.902 95.5083ZM145.232 95.5709C146.018 96.5567 147.092 97.2737 148.304 97.6225C149.516 97.9713 150.806 97.9349 151.997 97.5181C153.187 97.1014 154.218 96.325 154.948 95.2964C155.678 94.2677 156.07 93.0377 156.071 91.7763C156.071 91.6954 156.071 91.6144 156.071 91.5334L155.3 93.1004C155.261 93.1797 155.201 93.2466 155.126 93.2934C155.051 93.3401 154.964 93.3649 154.876 93.3649C154.788 93.3649 154.701 93.3401 154.626 93.2934C154.551 93.2466 154.491 93.1797 154.452 93.1004L154.11 92.4214C153.822 92.5598 153.564 92.6825 153.326 92.7948C151.202 93.8076 148.993 94.6334 146.725 95.2628C146.414 95.3437 146.145 95.4064 145.903 95.456C145.66 95.5057 145.44 95.5422 145.232 95.5709ZM154.206 92.1289C153.833 92.3091 153.519 92.4579 153.219 92.5964C151.11 93.5978 148.919 94.4156 146.67 95.0408C146.365 95.1191 146.098 95.1818 145.858 95.2288C145.513 95.3028 145.165 95.3569 144.814 95.3907L145.002 95.3699C145.263 95.3385 145.542 95.2915 145.848 95.2288C146.088 95.1792 146.352 95.1165 146.66 95.0382C148.915 94.418 151.111 93.6027 153.224 92.6016C153.486 92.4762 153.786 92.3404 154.112 92.1837L154.209 92.1341L154.65 93.009C154.672 93.0499 154.704 93.0843 154.744 93.1086C154.783 93.133 154.828 93.1463 154.875 93.1474C154.922 93.1465 154.968 93.133 155.008 93.1082C155.048 93.0834 155.08 93.0482 155.102 93.0064L156.214 90.7395C156.214 90.6821 156.193 90.622 156.18 90.5619L156.003 90.5097H155.974L153.624 90.0788C153.574 90.0708 153.522 90.0777 153.476 90.0986C153.429 90.1194 153.39 90.1534 153.363 90.1963C153.343 90.2338 153.333 90.2754 153.333 90.3177C153.333 90.3601 153.343 90.4017 153.363 90.4392L153.822 91.3532L153.721 91.4029C153.444 91.536 153.157 91.664 152.867 91.805C150.891 92.7398 148.845 93.5153 146.746 94.1241C146.224 94.2626 145.79 94.3644 145.44 94.4271C145.101 94.4939 144.757 94.5332 144.412 94.5446H144.354C144.719 94.5378 145.083 94.4985 145.44 94.4271C145.801 94.3644 146.245 94.2626 146.746 94.1241C148.844 93.5155 150.891 92.7409 152.867 91.8077C153.198 91.6536 153.519 91.5021 153.822 91.3532L153.365 90.4392C153.344 90.4022 153.333 90.3603 153.333 90.3177C153.333 90.2752 153.344 90.2333 153.365 90.1963C153.393 90.1539 153.433 90.1204 153.479 90.1C153.525 90.0796 153.577 90.0732 153.627 90.0814L155.977 90.5123C156.015 90.5189 156.052 90.5346 156.083 90.5583C156.115 90.5819 156.14 90.6127 156.157 90.6481C156.173 90.6825 156.181 90.7199 156.181 90.7578C156.181 90.7957 156.173 90.8331 156.157 90.8675L155.112 93.0142C155.09 93.0547 155.058 93.0885 155.018 93.1124C154.979 93.1362 154.934 93.1492 154.888 93.15C154.842 93.151 154.797 93.139 154.758 93.1155C154.718 93.0919 154.686 93.0577 154.666 93.0168L154.206 92.1289ZM144.751 92.3195L144.785 92.4971C144.832 92.7348 144.889 92.9698 144.955 93.197L144.976 93.2675L144.918 93.3145C144.627 93.5445 144.357 93.7997 144.111 94.0771C144.179 94.2417 144.244 94.3905 144.315 94.5315L144.284 94.4689C144.234 94.3644 144.187 94.2573 144.137 94.1398L144.111 94.0745L144.158 94.0223C144.411 93.7497 144.684 93.4973 144.976 93.2675C144.883 92.9561 144.809 92.6396 144.754 92.3195H144.751ZM144.37 94.1189L144.453 94.3069C144.763 94.2914 145.071 94.2539 145.375 94.1946C145.73 94.132 146.158 94.0327 146.681 93.8969C148.767 93.2924 150.802 92.5212 152.765 91.5909C153.026 91.476 153.271 91.3558 153.517 91.2383L153.156 90.5254C153.117 90.4469 153.101 90.3591 153.109 90.2718C153.116 90.1844 153.148 90.101 153.201 90.0308C153.254 89.9606 153.325 89.9064 153.406 89.8743C153.488 89.8422 153.577 89.8334 153.663 89.849L155.888 90.2564C155.518 88.8223 154.637 87.5724 153.412 86.7407C152.187 85.9091 150.7 85.5528 149.231 85.7385C147.762 85.9243 146.411 86.6394 145.431 87.7498C144.451 88.8603 143.909 90.29 143.908 91.7711C143.908 92.071 143.931 92.3704 143.976 92.6669C144.169 92.4997 144.388 92.3221 144.626 92.1445C144.656 92.1215 144.692 92.1067 144.73 92.1016C144.768 92.0966 144.807 92.1015 144.842 92.1158C144.878 92.1299 144.909 92.1526 144.933 92.1818C144.957 92.211 144.974 92.2458 144.981 92.283C145.035 92.5951 145.107 92.9038 145.198 93.2075C145.21 93.2501 145.209 93.2955 145.196 93.3378C145.182 93.3801 145.157 93.4174 145.122 93.4451C144.855 93.6534 144.604 93.8803 144.37 94.1241V94.1189ZM143.824 93.103C144.043 92.8967 144.307 92.6695 144.607 92.4318L144.686 92.3744C144.425 92.5807 144.164 92.7792 143.965 92.9672L143.824 93.103ZM149.989 85.4693C149.057 85.4697 148.137 85.6767 147.294 86.0753C146.452 86.474 145.708 87.0544 145.116 87.7748C144.525 88.4952 144.1 89.3378 143.873 90.2419C143.646 91.1461 143.622 92.0893 143.803 93.0038L143.785 92.9097C143.499 91.2912 143.857 89.6251 144.78 88.2659C145.704 86.9067 147.122 85.9618 148.732 85.632C150.342 85.3023 152.017 85.6139 153.401 86.5004C154.784 87.387 155.768 88.7786 156.141 90.3791L156.165 90.4757C155.864 89.0594 155.086 87.7893 153.961 86.878C152.835 85.9667 151.432 85.4694 149.984 85.4693H149.989Z" fill="#DF2E8B"/>
<path d="M149.985 98.1923C148.708 98.1923 147.52 96.9675 146.883 94.9957C146.877 94.9823 146.873 94.9676 146.873 94.9526C146.873 94.9377 146.877 94.923 146.883 94.9095C146.89 94.8962 146.9 94.8845 146.911 94.8751C146.923 94.8656 146.937 94.8587 146.951 94.8547C149.082 94.2363 151.161 93.4504 153.168 92.5043L153.247 92.4677L153.385 92.405C153.402 92.3961 153.421 92.3914 153.44 92.3914C153.459 92.3914 153.478 92.3961 153.495 92.405C153.51 92.4163 153.523 92.4313 153.531 92.4487C153.539 92.466 153.543 92.4851 153.542 92.5043C153.346 95.7479 151.813 98.1923 149.985 98.1923ZM147.131 95.0375C147.745 96.85 148.831 97.9703 149.985 97.9703C151.662 97.9703 153.074 95.7087 153.315 92.6792L153.268 92.7028C151.285 93.6377 149.234 94.4182 147.131 95.0375ZM146.758 94.2175C146.738 94.2234 146.717 94.2234 146.698 94.2175C146.671 94.201 146.653 94.1747 146.646 94.1443C146.479 93.3721 146.396 92.584 146.397 91.7939C146.397 88.2552 148.006 85.3746 149.983 85.3746C151.628 85.3746 153.059 87.3594 153.461 90.2035C153.463 90.2269 153.459 90.2505 153.448 90.2714C153.437 90.2916 153.432 90.314 153.432 90.3367C153.432 90.3594 153.437 90.3817 153.448 90.4019L153.49 90.4829C153.495 90.4955 153.499 90.5087 153.503 90.5221C153.539 90.8642 153.56 91.2037 153.565 91.5301C153.566 91.5514 153.561 91.5725 153.549 91.5906C153.538 91.6088 153.522 91.6232 153.503 91.632L153.1 91.8226L152.897 91.9167C150.924 92.844 148.881 93.6133 146.787 94.2175H146.758ZM149.985 85.5757C148.131 85.5757 146.622 88.3571 146.622 91.773C146.62 92.5099 146.693 93.245 146.841 93.9668C148.884 93.3628 150.878 92.6032 152.805 91.6947L153.009 91.598L153.346 91.4414C153.346 91.1489 153.317 90.8485 153.286 90.5456L153.252 90.4803C153.229 90.434 153.215 90.3834 153.213 90.3318C153.21 90.2801 153.218 90.2284 153.236 90.18C152.845 87.4717 151.51 85.5783 149.985 85.5783V85.5757Z" fill="#DF2E8B"/>
<path d="M149.983 98.3054C148.656 98.3054 147.427 97.0518 146.774 95.033C146.764 95.0043 146.761 94.9738 146.763 94.9436C146.766 94.9134 146.775 94.884 146.789 94.8574C146.804 94.8307 146.823 94.8073 146.847 94.7885C146.871 94.7698 146.899 94.7561 146.928 94.7484C149.053 94.1285 151.125 93.3426 153.127 92.3979L153.221 92.3535L153.344 92.2987C153.378 92.2815 153.417 92.2738 153.456 92.2764C153.494 92.2791 153.532 92.2919 153.564 92.3137C153.596 92.3355 153.622 92.3654 153.639 92.4004C153.655 92.4354 153.663 92.4742 153.66 92.5129C153.451 95.8165 151.871 98.3054 149.983 98.3054ZM146.996 95.0017C147.62 96.9082 148.764 98.0912 149.983 98.0912C150.104 98.0905 150.224 98.0792 150.343 98.0573C150.224 98.0783 150.104 98.0888 149.983 98.0886C148.784 98.0886 147.651 96.9369 147.022 95.0827L146.996 95.0017ZM147.273 95.1218C147.873 96.8194 148.907 97.8692 149.983 97.8692C151.55 97.8692 152.908 95.7329 153.187 92.8706C151.272 93.7606 149.296 94.5103 147.273 95.114V95.1218ZM153.438 92.5102L153.312 92.5651L153.218 92.6095C151.206 93.556 149.122 94.3419 146.985 94.9599L147.098 94.9286C149.196 94.3093 151.243 93.5315 153.223 92.6016L153.443 92.5024L153.438 92.5102ZM153.438 92.5677V92.6983C153.417 92.9438 153.391 93.1866 153.357 93.4217C153.383 93.137 153.414 92.8524 153.435 92.5599L153.438 92.5677ZM146.758 94.3384C146.718 94.3388 146.678 94.328 146.643 94.307C146.618 94.2916 146.595 94.2711 146.578 94.2469C146.56 94.2227 146.548 94.1951 146.541 94.166C146.369 93.3838 146.281 92.5852 146.28 91.7842C146.28 88.1828 147.938 85.2552 149.978 85.2552C151.68 85.2552 153.156 87.2792 153.566 90.1781C153.571 90.2247 153.563 90.2718 153.542 90.3139C153.54 90.3183 153.538 90.3232 153.538 90.3283C153.538 90.3333 153.54 90.3383 153.542 90.3426L153.584 90.4236C153.597 90.447 153.605 90.4727 153.607 90.4993C153.644 90.8467 153.667 91.1888 153.673 91.5178C153.673 91.5607 153.661 91.6028 153.638 91.6393C153.615 91.6757 153.583 91.7051 153.545 91.7242L153.143 91.9122L152.939 92.0088C150.959 92.9423 148.909 93.7186 146.808 94.3305C146.79 94.3326 146.773 94.3326 146.756 94.3305L146.758 94.3384ZM146.758 94.1164C148.847 93.5081 150.885 92.7361 152.853 91.8077L153.056 91.7111L153.458 91.5231C153.458 91.1992 153.432 90.8623 153.393 90.5228L153.351 90.4419C153.333 90.4058 153.324 90.366 153.324 90.3256C153.324 90.2853 153.333 90.2455 153.351 90.2094C152.962 87.4281 151.571 85.4694 149.983 85.4694C148.066 85.4694 146.507 88.2977 146.507 91.7764C146.51 92.5609 146.597 93.3429 146.769 94.1085L146.742 93.9936C146.594 93.2639 146.521 92.521 146.523 91.7764C146.523 88.2977 148.09 85.4694 149.996 85.4694C151.576 85.4694 152.957 87.402 153.359 90.1703V90.2016V90.2277C153.345 90.2607 153.337 90.2962 153.337 90.3322C153.337 90.3681 153.345 90.4037 153.359 90.4366L153.401 90.5202V90.5385C153.435 90.8467 153.456 91.1522 153.461 91.4447V91.5152L153.396 91.5466L153.09 91.6902L152.855 91.7999C150.923 92.7125 148.923 93.4748 146.873 94.0798L146.758 94.1164ZM149.986 85.6992C148.192 85.6992 146.735 88.4283 146.735 91.7842C146.732 92.474 146.797 93.1624 146.928 93.8395C148.923 93.2411 150.871 92.4947 152.756 91.6066L152.991 91.4969L153.229 91.3846C153.229 91.1235 153.203 90.8623 153.174 90.6012L153.15 90.5542C153.094 90.4423 153.084 90.3131 153.122 90.1938C152.733 87.5326 151.445 85.6914 149.983 85.6914L149.986 85.6992Z" fill="#DF2E8B"/>
<path d="M149.985 95.356C149.044 95.3602 148.106 95.2408 147.196 95.0008C147.173 94.9941 147.152 94.98 147.138 94.9607C147.123 94.9414 147.115 94.9179 147.115 94.8937C147.115 94.8695 147.123 94.8458 147.137 94.8264C147.152 94.807 147.173 94.793 147.196 94.7867C149.243 94.1728 151.242 93.4072 153.176 92.4963C153.507 92.3422 153.834 92.1881 154.157 92.0314C154.184 92.0186 154.214 92.0167 154.242 92.0259C154.27 92.0352 154.293 92.055 154.306 92.0811L154.748 92.956C154.76 92.9776 154.778 92.9956 154.8 93.0081C154.822 93.0206 154.847 93.0272 154.872 93.0272C154.897 93.0272 154.921 93.0206 154.943 93.0081C154.965 92.9956 154.983 92.9776 154.996 92.956L156.009 90.8954C156.017 90.8758 156.032 90.8593 156.05 90.848C156.068 90.8368 156.089 90.8315 156.111 90.8327C156.132 90.8332 156.152 90.8396 156.17 90.8512C156.187 90.8627 156.201 90.8789 156.21 90.898C156.338 91.1728 156.405 91.4723 156.406 91.7755C156.406 93.7499 153.526 95.356 149.985 95.356ZM147.653 94.8859C148.419 95.0534 149.201 95.1366 149.985 95.134C153.403 95.134 156.181 93.6271 156.181 91.7755C156.181 91.5876 156.152 91.4009 156.095 91.2219L155.197 93.05C155.166 93.1097 155.119 93.1599 155.062 93.1949C155.005 93.2299 154.939 93.2484 154.872 93.2484C154.804 93.2484 154.739 93.2299 154.681 93.1949C154.624 93.1599 154.577 93.1097 154.547 93.05L154.155 92.2665C153.865 92.4075 153.567 92.5485 153.267 92.687C151.447 93.545 149.571 94.2797 147.653 94.8859ZM145.762 94.4628C145.746 94.4667 145.729 94.4667 145.713 94.4628C145.286 94.256 144.889 93.9925 144.533 93.6794C144.521 93.6686 144.512 93.6557 144.506 93.6413C144.5 93.6269 144.497 93.6114 144.497 93.5958C144.497 93.5801 144.5 93.5646 144.506 93.5503C144.512 93.5359 144.521 93.523 144.533 93.5122C144.627 93.4286 144.734 93.3398 144.849 93.2511C144.783 93.0212 144.726 92.7836 144.676 92.5407C144.483 92.6922 144.295 92.8489 144.102 93.0186C144.076 93.039 144.043 93.0484 144.01 93.0447C143.995 93.0424 143.98 93.0365 143.966 93.0274C143.953 93.0184 143.942 93.0064 143.935 92.9925C143.7 92.6363 143.572 92.2203 143.566 91.7938C143.566 89.8168 146.439 88.2107 149.985 88.2107C152.609 88.2107 154.946 89.083 155.928 90.4305C155.94 90.4485 155.947 90.47 155.947 90.4919C155.947 90.5139 155.94 90.5353 155.928 90.5533C155.916 90.5728 155.899 90.5882 155.879 90.5976C155.858 90.6069 155.835 90.6097 155.813 90.6055L153.596 90.2007C153.568 90.196 153.54 90.1998 153.514 90.2114C153.489 90.223 153.467 90.2421 153.452 90.266C153.44 90.2861 153.434 90.3091 153.434 90.3326C153.434 90.3561 153.44 90.3791 153.452 90.3992L153.909 91.3133C153.92 91.3401 153.92 91.37 153.909 91.3968C153.899 91.4251 153.879 91.4485 153.852 91.4621C153.549 91.611 153.225 91.7651 152.894 91.9165C150.913 92.8546 148.86 93.6319 146.755 94.2408C146.413 94.3349 146.084 94.4132 145.781 94.4785L145.762 94.4628ZM144.775 93.5853C145.083 93.8397 145.418 94.0579 145.775 94.2356C146.065 94.173 146.379 94.0946 146.702 94.0084C148.795 93.401 150.835 92.6282 152.805 91.6972C153.1 91.5614 153.387 91.436 153.659 91.2924L153.249 90.4802C153.222 90.4252 153.209 90.3644 153.212 90.3032C153.214 90.242 153.232 90.1825 153.264 90.1302C153.302 90.0672 153.358 90.0174 153.425 89.9875C153.491 89.9575 153.566 89.949 153.638 89.9631L155.562 90.313C154.518 89.1535 152.384 88.417 149.985 88.417C146.569 88.417 143.791 89.9213 143.791 91.7755C143.794 92.1155 143.884 92.4491 144.052 92.7444C144.264 92.5642 144.47 92.3971 144.684 92.2352C144.699 92.2237 144.717 92.2163 144.736 92.2136C144.754 92.2108 144.773 92.2129 144.791 92.2195C144.809 92.2268 144.824 92.2383 144.836 92.2528C144.849 92.2673 144.857 92.2845 144.862 92.3031C144.915 92.6199 144.988 92.933 145.081 93.2406C145.087 93.2616 145.087 93.284 145.08 93.3048C145.074 93.3257 145.061 93.3442 145.044 93.3581L144.775 93.5853Z" fill="#DF2E8B"/>
<path d="M149.983 95.4662C149.032 95.4716 148.085 95.3522 147.165 95.111C147.119 95.0977 147.078 95.0701 147.049 95.0321C147.019 94.9941 147.002 94.9476 147.001 94.8995C147 94.8505 147.016 94.8028 147.045 94.7636C147.074 94.7244 147.116 94.6959 147.163 94.6827C149.205 94.0679 151.198 93.3014 153.127 92.3897C153.424 92.2513 153.738 92.1025 154.106 91.9249C154.132 91.9119 154.16 91.9042 154.189 91.9022C154.218 91.9001 154.247 91.9038 154.274 91.9131C154.301 91.9223 154.327 91.9368 154.349 91.9559C154.37 91.975 154.388 91.9981 154.401 92.0241L154.842 92.9121C154.842 92.9121 154.866 92.9121 154.868 92.9121C154.872 92.9139 154.877 92.9149 154.881 92.9149C154.886 92.9149 154.89 92.9139 154.894 92.9121L155.908 90.8515C155.925 90.8129 155.953 90.7804 155.989 90.758C156.025 90.7357 156.066 90.7246 156.109 90.7262C156.151 90.7272 156.193 90.7403 156.228 90.7639C156.264 90.7874 156.292 90.8205 156.31 90.8593C156.443 91.1485 156.512 91.4629 156.513 91.7812C156.513 93.8104 153.584 95.4662 149.983 95.4662ZM147.552 94.9778C148.35 95.1564 149.165 95.2441 149.983 95.239C153.461 95.239 156.291 93.672 156.291 91.7682C156.291 91.5494 156.254 91.3322 156.182 91.1257L156.2 91.1806C156.26 91.3707 156.291 91.5688 156.291 91.7682C156.291 93.6799 153.461 95.2364 149.983 95.2364C149.193 95.2386 148.405 95.1554 147.633 94.9883L147.552 94.9778ZM148.103 94.8629C148.724 94.9709 149.353 95.0242 149.983 95.0222C153.338 95.0222 156.069 93.5649 156.069 91.776C156.069 91.7017 156.064 91.6276 156.054 91.554L155.294 93.1053C155.254 93.1839 155.193 93.2498 155.118 93.2959C155.043 93.342 154.956 93.3664 154.868 93.3665C154.78 93.3668 154.694 93.3426 154.619 93.2964C154.545 93.2502 154.484 93.184 154.445 93.1053L154.103 92.4263C153.816 92.5647 153.558 92.6875 153.32 92.7998C151.624 93.5917 149.882 94.2807 148.103 94.8629ZM154.205 92.1286C153.832 92.3088 153.518 92.4576 153.218 92.5961C151.276 93.509 149.268 94.2763 147.212 94.8916L147.601 94.7741C149.522 94.1776 151.4 93.4516 153.223 92.6013C153.484 92.4759 153.785 92.3401 154.111 92.1834L154.208 92.1338L154.649 93.0087C154.671 93.0496 154.703 93.084 154.743 93.1083C154.782 93.1327 154.827 93.146 154.874 93.1471C154.921 93.1462 154.967 93.1327 155.007 93.1079C155.047 93.083 155.079 93.0479 155.101 93.0061L156.111 90.9429L155.098 93.0061C155.076 93.0465 155.044 93.0804 155.004 93.1042C154.965 93.1281 154.92 93.1411 154.874 93.1419C154.828 93.1429 154.783 93.1309 154.743 93.1073C154.704 93.0837 154.672 93.0496 154.652 93.0087L154.205 92.1286ZM145.76 94.5704C145.726 94.5704 145.692 94.5623 145.661 94.5469C145.225 94.3371 144.819 94.0672 144.457 93.7451C144.434 93.7246 144.415 93.6993 144.402 93.671C144.389 93.6426 144.382 93.6118 144.382 93.5806C144.382 93.5491 144.389 93.518 144.402 93.4893C144.415 93.4605 144.434 93.4347 144.457 93.4135L144.719 93.1889C144.674 93.0348 144.635 92.8755 144.601 92.7162C144.457 92.8311 144.316 92.9512 144.17 93.0792C144.146 93.1003 144.118 93.116 144.087 93.125C144.056 93.134 144.023 93.1363 143.992 93.1316C143.96 93.1268 143.93 93.1153 143.903 93.0977C143.876 93.0801 143.853 93.0568 143.836 93.0296C143.59 92.6555 143.457 92.2185 143.452 91.7708C143.452 89.7337 146.382 88.078 149.98 88.078C152.638 88.078 155.004 88.9659 156.012 90.3396C156.038 90.3758 156.053 90.4188 156.054 90.4632C156.056 90.5077 156.044 90.5516 156.02 90.5893C155.997 90.6271 155.963 90.657 155.922 90.6753C155.882 90.6937 155.837 90.6995 155.793 90.6922L153.573 90.2848C153.567 90.2848 153.562 90.2862 153.557 90.2889C153.552 90.2917 153.548 90.2956 153.544 90.3005C153.542 90.3043 153.54 90.3089 153.54 90.3135C153.54 90.3182 153.542 90.3227 153.544 90.3266L154.001 91.238C154.028 91.2917 154.032 91.3534 154.014 91.4104C154.005 91.4382 153.991 91.4639 153.971 91.4859C153.952 91.5078 153.929 91.5257 153.902 91.5384C153.591 91.6898 153.268 91.8439 152.941 91.9954C150.954 92.9342 148.895 93.7131 146.784 94.3249C146.442 94.4189 146.113 94.4973 145.805 94.5652L145.76 94.5704ZM144.664 93.6329C144.998 93.9158 145.367 94.1561 145.76 94.3484C146.063 94.2831 146.39 94.2022 146.729 94.1108C148.828 93.5022 150.874 92.7276 152.85 91.7943C153.176 91.6428 153.497 91.4913 153.806 91.3399L153.349 90.4258C153.328 90.3888 153.316 90.347 153.316 90.3044C153.316 90.2618 153.328 90.2199 153.349 90.1829C153.376 90.1405 153.416 90.1071 153.462 90.0867C153.508 90.0663 153.56 90.0598 153.61 90.068L155.827 90.4728L153.607 90.0654C153.557 90.0574 153.505 90.0643 153.459 90.0852C153.413 90.1061 153.373 90.14 153.346 90.1829C153.326 90.2204 153.316 90.2621 153.316 90.3044C153.316 90.3467 153.326 90.3884 153.346 90.4258L153.806 91.3399L153.704 91.3895C153.427 91.5227 153.14 91.6507 152.85 91.7917C150.875 92.7264 148.828 93.5019 146.729 94.1108C146.403 94.1996 146.089 94.2753 145.797 94.338H145.76L145.724 94.3197C145.359 94.1386 145.017 93.916 144.703 93.6564L144.664 93.6329ZM144.948 93.578C145.21 93.7841 145.492 93.9635 145.789 94.1134C146.069 94.0533 146.364 93.9802 146.672 93.8966C148.758 93.2921 150.793 92.5209 152.756 91.5906C153.017 91.4757 153.262 91.3555 153.508 91.238L153.148 90.5251C153.108 90.4466 153.092 90.3588 153.1 90.2715C153.108 90.1841 153.14 90.1007 153.192 90.0305C153.245 89.9603 153.316 89.9061 153.397 89.874C153.479 89.8419 153.568 89.8331 153.654 89.8487L155.234 90.1359C154.142 89.1331 152.174 88.522 149.983 88.522C146.627 88.522 143.899 89.9792 143.899 91.7708C143.902 92.0427 143.967 92.3103 144.087 92.5543C144.262 92.408 144.437 92.267 144.609 92.1312C144.639 92.1081 144.676 92.0933 144.713 92.0883C144.751 92.0833 144.79 92.0881 144.826 92.1025C144.861 92.1166 144.892 92.1392 144.916 92.1684C144.94 92.1976 144.957 92.2324 144.964 92.2696C145.018 92.5819 145.09 92.8906 145.181 93.1941C145.193 93.2361 145.193 93.2809 145.18 93.3228C145.167 93.3647 145.142 93.4018 145.108 93.4291L144.948 93.578ZM144.75 92.3192L144.784 92.4968C144.831 92.7345 144.888 92.9721 144.954 93.1967L144.974 93.2672L144.917 93.3142C144.807 93.403 144.708 93.4892 144.619 93.5754L144.703 93.5049C144.786 93.4318 144.875 93.356 144.964 93.2751C144.871 92.9637 144.797 92.6472 144.742 92.3271L144.75 92.3192ZM144.024 92.9121C144.222 92.7397 144.413 92.583 144.606 92.4289L144.69 92.3662C144.497 92.5125 144.314 92.6613 144.126 92.8233L144.024 92.9121ZM149.983 88.3C146.505 88.3 143.677 89.8669 143.677 91.7708C143.681 92.1506 143.788 92.5221 143.985 92.8468L143.956 92.7945C143.776 92.483 143.68 92.1304 143.677 91.7708C143.677 89.8565 146.507 88.3 149.983 88.3C150.507 88.2998 151.03 88.3356 151.549 88.4071C151.03 88.3374 150.507 88.3034 149.983 88.3052V88.3ZM155.524 90.1072C155.563 90.149 155.605 90.1908 155.641 90.2352L155.66 90.2535L155.524 90.1072Z" fill="#DF2E8B"/>
<path d="M156.295 91.8855H155.702C155.686 91.888 155.67 91.887 155.654 91.8825C155.639 91.8781 155.624 91.8703 155.612 91.8598C155.6 91.8492 155.59 91.8361 155.583 91.8214C155.576 91.8067 155.573 91.7907 155.573 91.7745C155.573 91.7583 155.576 91.7423 155.583 91.7276C155.59 91.7129 155.6 91.6998 155.612 91.6893C155.624 91.6788 155.639 91.671 155.654 91.6665C155.67 91.6621 155.686 91.6611 155.702 91.6635H156.295C156.311 91.6611 156.327 91.6621 156.343 91.6665C156.358 91.671 156.373 91.6788 156.385 91.6893C156.397 91.6998 156.407 91.7129 156.414 91.7276C156.421 91.7423 156.424 91.7583 156.424 91.7745C156.424 91.7907 156.421 91.8067 156.414 91.8214C156.407 91.8361 156.397 91.8492 156.385 91.8598C156.373 91.8703 156.358 91.8781 156.343 91.8825C156.327 91.887 156.311 91.888 156.295 91.8855ZM152.9 91.8855H143.68C143.664 91.888 143.648 91.887 143.632 91.8825C143.617 91.8781 143.602 91.8703 143.59 91.8598C143.578 91.8492 143.568 91.8361 143.561 91.8214C143.554 91.8067 143.551 91.7907 143.551 91.7745C143.551 91.7583 143.554 91.7423 143.561 91.7276C143.568 91.7129 143.578 91.6998 143.59 91.6893C143.602 91.6788 143.617 91.671 143.632 91.6665C143.648 91.6621 143.664 91.6611 143.68 91.6635H152.906C152.932 91.6676 152.956 91.6811 152.974 91.7014C152.991 91.7218 153.001 91.7477 153.001 91.7745C153.001 91.8014 152.991 91.8273 152.974 91.8477C152.956 91.868 152.932 91.8814 152.906 91.8855H152.9Z" fill="#DF2E8B"/>
<path d="M156.295 91.9974H155.702C155.643 91.9974 155.587 91.9741 155.545 91.9324C155.503 91.8908 155.48 91.8343 155.48 91.7755C155.48 91.7166 155.503 91.6601 155.545 91.6185C155.587 91.5769 155.643 91.5535 155.702 91.5535H156.295C156.354 91.5535 156.41 91.5769 156.452 91.6185C156.493 91.6601 156.517 91.7166 156.517 91.7755C156.517 91.8343 156.493 91.8908 156.452 91.9324C156.41 91.9741 156.354 91.9974 156.295 91.9974ZM152.905 91.9974H143.68C143.621 91.9974 143.565 91.9741 143.523 91.9324C143.481 91.8908 143.458 91.8343 143.458 91.7755C143.458 91.7166 143.481 91.6601 143.523 91.6185C143.565 91.5769 143.621 91.5535 143.68 91.5535H152.905C152.964 91.5535 153.021 91.5769 153.062 91.6185C153.104 91.6601 153.127 91.7166 153.127 91.7755C153.127 91.8343 153.104 91.8908 153.062 91.9324C153.021 91.9741 152.964 91.9974 152.905 91.9974Z" fill="#DF2E8B"/>
<path d="M149.985 98.192C149.971 98.1924 149.956 98.1898 149.943 98.1844C149.929 98.1791 149.917 98.1711 149.906 98.1608C149.896 98.1506 149.887 98.1384 149.882 98.1249C149.876 98.1115 149.873 98.097 149.873 98.0823V93.956C149.873 93.9263 149.885 93.8977 149.906 93.8766C149.927 93.8556 149.956 93.8437 149.985 93.8437C150.015 93.8437 150.044 93.8556 150.065 93.8766C150.086 93.8977 150.098 93.9263 150.098 93.956V98.0823C150.098 98.097 150.095 98.1115 150.089 98.1249C150.083 98.1384 150.075 98.1506 150.065 98.1608C150.054 98.1711 150.042 98.1791 150.028 98.1844C150.014 98.1898 150 98.1924 149.985 98.192ZM149.985 93.1334C149.956 93.1334 149.927 93.1216 149.906 93.1005C149.885 93.0794 149.873 93.0509 149.873 93.0211V85.4684C149.873 85.4386 149.885 85.41 149.906 85.389C149.927 85.3679 149.956 85.3561 149.985 85.3561C150.015 85.3561 150.044 85.3679 150.065 85.389C150.086 85.41 150.098 85.4386 150.098 85.4684V93.0211C150.098 93.0509 150.086 93.0794 150.065 93.1005C150.044 93.1216 150.015 93.1334 149.985 93.1334Z" fill="#DF2E8B"/>
<path d="M149.983 98.3053C149.924 98.3053 149.867 98.2819 149.826 98.2402C149.784 98.1986 149.761 98.1421 149.761 98.0833V93.957C149.761 93.8981 149.784 93.8416 149.826 93.8C149.867 93.7584 149.924 93.735 149.983 93.735C150.042 93.735 150.098 93.7584 150.14 93.8C150.181 93.8416 150.205 93.8981 150.205 93.957V98.0833C150.205 98.1421 150.181 98.1986 150.14 98.2402C150.098 98.2819 150.042 98.3053 149.983 98.3053ZM149.983 93.9674V98.0833V93.9674ZM149.983 93.244C149.924 93.244 149.867 93.2206 149.826 93.179C149.784 93.1373 149.761 93.0809 149.761 93.022V85.4693C149.761 85.4104 149.784 85.354 149.826 85.3123C149.867 85.2707 149.924 85.2473 149.983 85.2473C150.042 85.2473 150.098 85.2707 150.14 85.3123C150.181 85.354 150.205 85.4104 150.205 85.4693V93.022C150.205 93.0809 150.181 93.1373 150.14 93.179C150.098 93.2206 150.042 93.244 149.983 93.244ZM149.983 85.4693V93.022V85.4693Z" fill="#DF2E8B"/>
<path d="M144.437 95.5227H144.304C143.588 95.5227 143.129 95.3111 142.935 94.8907C142.63 94.2247 143.233 93.5562 143.432 93.3368C143.813 92.9267 144.233 92.5542 144.685 92.2243C144.7 92.213 144.718 92.2058 144.736 92.203C144.755 92.2003 144.774 92.2022 144.792 92.2086C144.809 92.2159 144.825 92.2274 144.837 92.2419C144.85 92.2564 144.858 92.2736 144.862 92.2922C144.917 92.6087 144.99 92.9218 145.082 93.2297C145.088 93.2507 145.088 93.2731 145.082 93.2941C145.075 93.315 145.062 93.3336 145.045 93.3472C144.678 93.6216 144.35 93.944 144.069 94.3057C144.063 94.3152 144.06 94.326 144.06 94.337C144.06 94.348 144.063 94.3588 144.069 94.3684C144.074 94.3791 144.081 94.3884 144.091 94.3952C144.1 94.4021 144.112 94.4064 144.123 94.4075C144.178 94.4075 144.244 94.4075 144.317 94.4075C144.682 94.3997 145.045 94.3604 145.403 94.29C145.761 94.2273 146.199 94.1255 146.709 93.9897C148.801 93.3823 150.841 92.6095 152.811 91.6784C153.106 91.5426 153.393 91.4173 153.665 91.2736L153.255 90.4614C153.228 90.4065 153.215 90.3456 153.218 90.2844C153.22 90.2233 153.239 90.1637 153.271 90.1115C153.308 90.0485 153.364 89.9986 153.431 89.9687C153.498 89.9388 153.572 89.9303 153.644 89.9443L155.994 90.3753C156.05 90.3842 156.103 90.4067 156.149 90.4409C156.194 90.475 156.231 90.5197 156.255 90.5711C156.281 90.6203 156.294 90.675 156.294 90.7304C156.294 90.7859 156.281 90.8405 156.255 90.8897L155.211 93.0365C155.18 93.0962 155.133 93.1463 155.076 93.1813C155.019 93.2163 154.953 93.2349 154.886 93.2349C154.818 93.2349 154.752 93.2163 154.695 93.1813C154.638 93.1463 154.591 93.0962 154.56 93.0365L154.169 92.253C153.879 92.394 153.581 92.535 153.281 92.6734C151.162 93.6886 148.958 94.5179 146.696 95.1518C146.387 95.2328 146.118 95.2955 145.876 95.3425C145.402 95.4467 144.921 95.5105 144.437 95.5331V95.5227ZM144.674 92.5115C144.287 92.8032 143.926 93.1293 143.596 93.4857C143.421 93.6789 142.891 94.2691 143.136 94.7914C143.291 95.1257 143.682 95.2955 144.304 95.2955H144.434C144.905 95.2733 145.373 95.2112 145.834 95.1101C146.074 95.0604 146.338 95.0004 146.643 94.922C148.885 94.2984 151.07 93.4823 153.171 92.4828C153.506 92.3287 153.832 92.1746 154.156 92.0179C154.182 92.0051 154.212 92.0032 154.24 92.0124C154.268 92.0217 154.291 92.0415 154.305 92.0676L154.746 92.9424C154.759 92.9641 154.777 92.9821 154.798 92.9946C154.82 93.0071 154.845 93.0137 154.87 93.0137C154.895 93.0137 154.92 93.0071 154.941 92.9946C154.963 92.9821 154.981 92.9641 154.994 92.9424L156.038 90.7957C156.047 90.7765 156.052 90.7556 156.052 90.7343C156.052 90.7131 156.047 90.6922 156.038 90.673C156.028 90.6537 156.013 90.637 155.996 90.6239C155.978 90.6108 155.958 90.6017 155.937 90.5972L153.586 90.1689C153.559 90.1643 153.53 90.168 153.505 90.1796C153.479 90.1912 153.458 90.2103 153.443 90.2342C153.431 90.2543 153.424 90.2773 153.424 90.3008C153.424 90.3243 153.431 90.3474 153.443 90.3674L153.9 91.2815C153.91 91.3083 153.91 91.3382 153.9 91.365C153.89 91.3933 153.869 91.4167 153.842 91.4303C153.539 91.5792 153.216 91.7333 152.884 91.8847C150.903 92.8229 148.85 93.6001 146.745 94.2091C146.223 94.3475 145.784 94.4493 145.421 94.5146C145.05 94.5872 144.674 94.6274 144.296 94.6347C144.214 94.6347 144.144 94.6347 144.084 94.6347C144.033 94.6304 143.984 94.6127 143.942 94.5834C143.9 94.554 143.866 94.5141 143.844 94.4676C143.824 94.4216 143.816 94.371 143.822 94.3211C143.827 94.2711 143.846 94.2235 143.875 94.1829C144.151 93.8231 144.473 93.5017 144.834 93.2271C144.782 93.0025 144.724 92.7649 144.674 92.522V92.5115Z" fill="#DF2E8B"/>
<path d="M144.437 95.6449H144.304C143.542 95.6449 143.048 95.4125 142.834 94.9502C142.497 94.219 143.14 93.5086 143.356 93.2736C143.744 92.8598 144.168 92.483 144.625 92.148C144.656 92.1251 144.691 92.1103 144.728 92.1048C144.766 92.0993 144.804 92.1034 144.84 92.1166C144.875 92.131 144.907 92.1541 144.931 92.1837C144.956 92.2133 144.973 92.2486 144.981 92.2864C145.035 92.5986 145.107 92.9073 145.197 93.2109C145.21 93.2529 145.21 93.2978 145.197 93.3398C145.184 93.3818 145.159 93.4188 145.124 93.4459C144.79 93.7005 144.486 93.9922 144.218 94.3156H144.317C144.675 94.3075 145.031 94.269 145.383 94.2007C145.738 94.138 146.166 94.0388 146.688 93.903C148.775 93.2984 150.809 92.5273 152.772 91.5969C153.033 91.482 153.279 91.3619 153.524 91.2444L153.164 90.5314C153.125 90.453 153.108 90.3651 153.116 90.2778C153.124 90.1905 153.156 90.107 153.209 90.0368C153.261 89.9667 153.332 89.9125 153.414 89.8804C153.495 89.8483 153.584 89.8395 153.671 89.855L156.021 90.2859C156.094 90.2994 156.162 90.3302 156.221 90.3756C156.279 90.421 156.326 90.4798 156.358 90.5471C156.391 90.6117 156.408 90.6833 156.408 90.756C156.408 90.8287 156.391 90.9004 156.358 90.9649L155.313 93.109C155.274 93.1884 155.214 93.2553 155.139 93.302C155.064 93.3488 154.977 93.3736 154.889 93.3736C154.8 93.3736 154.714 93.3488 154.639 93.302C154.564 93.2553 154.503 93.1884 154.464 93.109L154.122 92.43C153.835 92.5684 153.577 92.6912 153.339 92.8035C151.21 93.8143 148.997 94.6375 146.725 95.2636C146.414 95.3446 146.145 95.4072 145.902 95.4569C145.424 95.5614 144.937 95.6252 144.448 95.6475L144.437 95.6449ZM144.678 92.383C144.259 92.6954 143.869 93.045 143.513 93.4277C143.328 93.634 142.761 94.2634 143.038 94.8614C143.21 95.2375 143.636 95.4281 144.304 95.4281H144.437C144.915 95.4075 145.391 95.3454 145.858 95.2427C146.098 95.1931 146.362 95.1304 146.67 95.0521C148.922 94.4271 151.115 93.6074 153.224 92.6024C153.485 92.477 153.786 92.3412 154.112 92.1845L154.209 92.1349L154.65 93.0098C154.672 93.0507 154.704 93.0851 154.743 93.1095C154.783 93.1338 154.828 93.1472 154.874 93.1482C154.921 93.1474 154.967 93.1338 155.007 93.109C155.047 93.0842 155.08 93.049 155.102 93.0072L156.146 90.8605C156.164 90.8263 156.174 90.7882 156.174 90.7495C156.174 90.7108 156.164 90.6727 156.146 90.6385C156.128 90.6038 156.103 90.5736 156.071 90.5501C156.04 90.5266 156.004 90.5104 155.966 90.5027L153.616 90.0718C153.566 90.0638 153.514 90.0707 153.468 90.0915C153.421 90.1124 153.382 90.1464 153.355 90.1893C153.335 90.2268 153.325 90.2684 153.325 90.3107C153.325 90.353 153.335 90.3947 153.355 90.4322L153.814 91.3462L153.712 91.3958C153.436 91.529 153.148 91.657 152.859 91.798C150.883 92.7328 148.837 93.5082 146.738 94.1171C146.216 94.2555 145.782 94.3574 145.432 94.4201C145.068 94.4907 144.699 94.53 144.328 94.5376C144.255 94.5376 144.187 94.5376 144.127 94.5376C144.095 94.5357 144.064 94.5253 144.038 94.5073C144.012 94.4894 143.991 94.4646 143.978 94.4357C143.966 94.4077 143.961 94.377 143.965 94.3467C143.969 94.3164 143.98 94.2877 143.999 94.2634C144.283 93.8914 144.618 93.5609 144.994 93.2814C144.901 92.97 144.827 92.6535 144.772 92.3334L144.806 92.5084C144.853 92.746 144.91 92.9811 144.975 93.2083L144.996 93.2788L144.939 93.3258C144.585 93.5926 144.27 93.9063 144.001 94.2581C143.982 94.2826 143.97 94.3119 143.966 94.3427C143.963 94.3736 143.968 94.4048 143.98 94.4331C143.994 94.4623 144.014 94.4875 144.04 94.5059C144.067 94.5242 144.097 94.5352 144.129 94.5376H144.33C144.701 94.53 145.071 94.4907 145.435 94.4201C145.795 94.3574 146.239 94.2555 146.74 94.1171C148.839 93.5085 150.886 92.7339 152.861 91.8006C153.193 91.6466 153.514 91.4951 153.817 91.3462L153.36 90.4322C153.339 90.3952 153.328 90.3533 153.328 90.3107C153.328 90.2682 153.339 90.2263 153.36 90.1893C153.388 90.1469 153.427 90.1134 153.473 90.093C153.52 90.0726 153.571 90.0661 153.621 90.0744L155.971 90.5053C156.01 90.5119 156.046 90.5276 156.078 90.5513C156.109 90.5749 156.134 90.6057 156.151 90.6411C156.167 90.6755 156.175 90.7129 156.175 90.7508C156.175 90.7887 156.167 90.8261 156.151 90.8605L155.107 93.0072C155.085 93.0476 155.052 93.0815 155.013 93.1054C154.973 93.1292 154.928 93.1422 154.882 93.143C154.836 93.144 154.791 93.132 154.752 93.1084C154.713 93.0849 154.681 93.0507 154.66 93.0098L154.206 92.1297C153.833 92.3099 153.519 92.4588 153.219 92.5972C151.11 93.5986 148.919 94.4164 146.67 95.0416C146.364 95.12 146.098 95.1826 145.858 95.2297C145.391 95.3331 144.915 95.396 144.437 95.4177H144.304C143.636 95.4177 143.21 95.2271 143.038 94.851C142.761 94.2529 143.328 93.6235 143.516 93.4172C143.85 93.0565 144.215 92.7262 144.607 92.43L144.678 92.383ZM144.605 92.7225C144.273 92.9793 143.964 93.2632 143.68 93.5713C143.518 93.7515 143.025 94.2973 143.239 94.7648C143.372 95.0547 143.73 95.2009 144.304 95.2009H144.435C144.899 95.1795 145.36 95.1183 145.814 95.0181C146.051 94.9711 146.312 94.9084 146.615 94.8327C148.852 94.2069 151.031 93.3899 153.127 92.3909C153.425 92.2524 153.736 92.1036 154.107 91.926C154.133 91.913 154.161 91.9053 154.19 91.9033C154.218 91.9013 154.247 91.905 154.275 91.9142C154.302 91.9234 154.328 91.938 154.349 91.957C154.371 91.9761 154.389 91.9993 154.402 92.0252L154.843 92.9132C154.843 92.9132 154.867 92.9132 154.869 92.9132C154.873 92.9151 154.878 92.916 154.882 92.916C154.887 92.916 154.891 92.9151 154.895 92.9132L155.94 90.7691C155.942 90.7606 155.942 90.7515 155.94 90.743C155.934 90.735 155.926 90.7294 155.916 90.7273L153.566 90.2964C153.56 90.2964 153.555 90.2978 153.55 90.3005C153.545 90.3033 153.541 90.3072 153.537 90.312C153.535 90.3159 153.533 90.3204 153.533 90.3251C153.533 90.3297 153.535 90.3343 153.537 90.3382L153.994 91.2496C154.021 91.3032 154.025 91.365 154.007 91.422C153.998 91.4498 153.984 91.4754 153.964 91.4974C153.945 91.5194 153.922 91.5373 153.895 91.5499C153.59 91.6988 153.266 91.8529 152.934 92.007C150.947 92.9457 148.888 93.7247 146.777 94.3365C146.255 94.4775 145.811 94.5794 145.443 94.6447C144.996 94.7323 144.54 94.7648 144.085 94.7413C144.014 94.7357 143.946 94.7112 143.888 94.6703C143.831 94.6294 143.785 94.5736 143.756 94.5089C143.726 94.4461 143.715 94.3766 143.721 94.3076C143.728 94.2386 143.754 94.1728 143.795 94.1171C144.061 93.7673 144.372 93.4538 144.719 93.1848C144.678 93.0412 144.638 92.8818 144.607 92.7225H144.605Z" fill="#DF2E8B"/>
<path d="M35.8038 81.9965C40.8303 81.9965 44.9847 79.5991 47.3662 75.9899L44.755 70.6962L43.6034 68.3457C43.6034 68.4476 43.6034 68.5521 43.6034 68.6565V68.7296C43.6034 73.1511 40.436 76.7603 35.8716 76.7603C31.3073 76.7603 28.0641 73.0753 28.0641 68.6644V68.5912C28.0641 64.1698 31.2315 60.5606 35.7959 60.5606C37.5154 60.5444 39.19 61.1094 40.5483 62.1641L39.5038 60.0435L37.2138 55.3897C36.7751 55.3531 36.3286 55.3296 35.8743 55.3296C27.9179 55.3296 22.1367 61.3362 22.1367 68.6644V68.7375C22.1419 76.0682 27.85 81.9965 35.8038 81.9965Z" fill="#DF2E8B"/>
<path d="M40.5559 62.1627C41.4863 62.9105 42.2416 63.8532 42.7685 64.9243C43.2954 65.9955 43.5812 67.1691 43.6058 68.3627L47.3659 75.9963C48.793 73.8253 49.5495 71.2821 49.541 68.6839V68.6108C49.541 61.6979 44.4648 56.036 37.2188 55.4092L40.5559 62.1627Z" fill="#E8002D"/>
<path d="M67.2567 81.9965C59.6711 81.9965 54.0361 76.1413 54.0361 68.7375V68.6644C54.0361 61.3336 59.5588 55.3296 67.4786 55.3296C72.3381 55.3296 75.2469 56.9514 77.6414 59.3097L74.0327 63.4699C72.043 61.6653 70.0193 60.5606 67.4394 60.5606C63.0944 60.5606 59.9636 64.1698 59.9636 68.5912V68.6644C59.9636 73.0832 63.0213 76.7603 67.4394 76.7603C70.3875 76.7603 72.1918 75.5798 74.2286 73.7387L77.8372 77.3949C75.1738 80.2285 72.2284 81.9965 67.2567 81.9965Z" fill="#E8002D"/>
<path d="M82.9434 81.5543V55.7727H102.389V60.8183H88.5783V66.0415H100.739V71.0871H88.5783V76.5009H102.567V81.5465L82.9434 81.5543Z" fill="#E8002D"/>
<path d="M102.388 55.7727H95.688L93.21 60.8183H102.388V55.7727Z" fill="#EB6100"/>
<path d="M88.5797 76.5071V71.0932H100.732V66.045H90.6426L83.0283 81.5527H102.573V76.5071H88.5797Z" fill="#EB6100"/>
<path d="M127.394 81.5539L125.044 75.7719H114.137L111.787 81.5539H105.998L117.046 55.5869H122.268L133.316 81.5539H127.394ZM119.587 62.4005L116.161 70.7576H123.013L119.587 62.4005Z" fill="#EB6100"/>
<path d="M155.972 81.5543L143.487 65.164V81.5543H137.892V55.7727H143.114L155.193 71.6459V55.7727H160.797V81.5543H155.972Z" fill="#EB6100"/>
<path d="M179.212 81.5543V55.7727H184.883V76.4042H197.736V81.5595L179.212 81.5543Z" fill="#00A5E3"/>
<path d="M221.782 81.5539L219.432 75.7719H208.525L206.175 81.5539H200.386L211.434 55.5869H216.656L227.704 81.5539H221.782ZM213.974 62.4005L210.551 70.7576H217.4L213.974 62.4005Z" fill="#00A5E3"/>
<path d="M225.273 81.5539H227.712L216.664 55.5869H212.847L225.273 81.5539Z" fill="#003F98"/>
<path d="M244.541 81.5543H232.269V55.7727H244.236C249.502 55.7727 252.743 58.3843 252.743 62.4375V62.5132C252.743 65.4225 251.197 67.0417 249.348 68.0733C252.33 69.2146 254.171 70.946 254.171 74.409V74.4821C254.19 79.1986 250.362 81.5543 244.541 81.5543ZM247.121 63.4012C247.121 61.7062 245.795 60.7504 243.4 60.7504H237.802V66.1956H243.024C245.528 66.1956 247.113 65.386 247.113 63.4691L247.121 63.4012ZM248.557 73.7143C248.557 71.9828 247.267 70.9147 244.358 70.9147H237.802V76.5871H244.541C247.045 76.5871 248.557 75.7043 248.557 73.7874V73.7143Z" fill="#003F98"/>
<path d="M146.562 69.1989L155.973 81.5543H160.798V55.7727H155.2V71.6459L143.121 55.7727H139.465L146.562 69.1989Z" fill="#F4C5DB"/>
</g>
</svg>
